<svg width="24" height="24" viewBox="0 0 24 24" fill="none" xmlns="http://www.w3.org/2000/svg">
<path fill-rule="evenodd" clip-rule="evenodd" d="M12.594 23.258L12.582 23.26L12.511 23.295L12.491 23.299L12.477 23.295L12.406 23.259C12.3953 23.2563 12.3873 23.2583 12.382 23.265L12.378 23.275L12.361 23.703L12.366 23.723L12.376 23.736L12.48 23.81L12.495 23.814L12.507 23.81L12.611 23.736L12.623 23.72L12.627 23.703L12.61 23.276C12.6073 23.2653 12.602 23.2593 12.594 23.258ZM12.858 23.145L12.844 23.147L12.66 23.24L12.65 23.25L12.647 23.261L12.665 23.691L12.67 23.703L12.678 23.711L12.879 23.803C12.8917 23.8063 12.9013 23.8037 12.908 23.795L12.912 23.781L12.878 23.167C12.8747 23.1543 12.868 23.147 12.858 23.145ZM12.143 23.147C12.1386 23.1443 12.1333 23.1435 12.1283 23.1446C12.1233 23.1457 12.1189 23.1487 12.116 23.153L12.11 23.167L12.076 23.781C12.0767 23.793 12.0823 23.801 12.093 23.805L12.108 23.803L12.309 23.71L12.319 23.702L12.322 23.691L12.34 23.261L12.337 23.249L12.327 23.239L12.143 23.147Z" fill="black"/>
<path fill-rule="evenodd" clip-rule="evenodd" d="M12 2C17.523 2 22 6.477 22 12C22 17.523 17.523 22 12 22C6.477 22 2 17.523 2 12C2 6.477 6.477 2 12 2ZM12 4C9.87827 4 7.84344 4.84285 6.34315 6.34315C4.84285 7.84344 4 9.87827 4 12C4 14.1217 4.84285 16.1566 6.34315 17.6569C7.84344 19.1571 9.87827 20 12 20C14.1217 20 16.1566 19.1571 17.6569 17.6569C19.1571 16.1566 20 14.1217 20 12C20 9.87827 19.1571 7.84344 17.6569 6.34315C16.1566 4.84285 14.1217 4 12 4ZM12.5 7C13.2488 6.99989 13.9778 7.23991 14.5801 7.68478C15.1823 8.12966 15.626 8.75595 15.846 9.47165C16.066 10.1874 16.0507 10.9547 15.8023 11.6611C15.5539 12.3674 15.0855 12.9755 14.466 13.396L15.832 15.446C15.9736 15.6667 16.0228 15.9341 15.9691 16.1908C15.9154 16.4474 15.7631 16.6727 15.5449 16.8181C15.3267 16.9635 15.0602 17.0174 14.8026 16.9682C14.5451 16.919 14.3172 16.7706 14.168 16.555L12.465 14H11V16C11 16.2652 10.8946 16.5196 10.7071 16.7071C10.5196 16.8946 10.2652 17 10 17C9.73478 17 9.48043 16.8946 9.29289 16.7071C9.10536 16.5196 9 16.2652 9 16V8C9 7.73478 9.10536 7.48043 9.29289 7.29289C9.48043 7.10536 9.73478 7 10 7H12.5ZM12.5 9H11V12H12.5C12.8978 12 13.2794 11.842 13.5607 11.5607C13.842 11.2794 14 10.8978 14 10.5C14 10.1022 13.842 9.72064 13.5607 9.43934C13.2794 9.15804 12.8978 9 12.5 9Z" fill="black"/>
</svg>
