<svg width="178" height="64" viewBox="0 0 178 64" fill="none" xmlns="http://www.w3.org/2000/svg">
<g clip-path="url(#clip0_1_133)">
<path d="M120.892 58.3383L129.765 22.2617L115.58 23.7355L107.075 58.3383H120.892Z" fill="white"/>
<path d="M161.144 22.2C157.03 21.8009 150.613 23.0597 147.42 25.4853C147.359 24.3186 147.144 23.1825 146.806 22.0465L134.586 23.5817C135.077 26.9898 134.586 30.797 133.389 35.8938L127.893 58.338H141.709L147.359 35.4025C148.74 33.4068 150.951 32.0866 152.793 32.0866C155.096 32.0866 155.649 33.7752 154.942 36.5386L149.631 58.338H163.447L169.373 34.6656C170.847 28.2486 168.759 22.9369 161.144 22.2Z" fill="white"/>
<path d="M98.8771 22.6603L94.4865 32.7617C92.8592 36.5689 91.4468 40.1306 90.2187 43.6307L90.0652 22.6603H77.5996L67.2525 43.7843L68.3578 22.1383L54.6641 23.8884L57.4274 58.3684H69.586C69.586 58.3684 78.7663 39.7621 79.5953 37.5822L79.7181 58.3377H92.1837L112.755 22.6296L98.8771 22.6603Z" fill="white"/>
<path d="M39.7737 21.7388C37.041 21.6774 34.3391 22.3221 31.9136 23.581C33.2952 19.1904 34.247 14.677 34.7076 10.1022C34.7997 9.05824 34.7997 7.98362 34.769 6.9397L20.2769 8.7205C20.4304 11.054 20.0927 14.7077 18.2505 22.5678L11.2501 51.4905C10.9431 52.8721 10.1448 55.4819 9.5 56.4644C15.1801 58.3988 21.1366 59.3506 27.1238 59.2278C31.6372 59.2278 35.2295 58.3988 38.8832 56.2495C45.1468 52.5958 49.0154 45.9945 50.6427 39.6082C53.6516 27.6339 48.7391 21.7388 39.7737 21.7388ZM36.1199 40.2223C34.5234 46.8849 32.4662 49.8325 28.966 49.8325C27.83 49.8939 26.694 49.5869 25.7114 49.0035L29.5187 33.1605C30.5933 32.0859 32.0364 31.4718 33.5715 31.4411C36.7033 31.4411 37.7779 33.1605 36.1199 40.2223Z" fill="white"/>
<path d="M124.484 18.6061C128.655 18.6061 132.037 15.2245 132.037 11.0531C132.037 6.88162 128.655 3.5 124.484 3.5C120.312 3.5 116.931 6.88162 116.931 11.0531C116.931 15.2245 120.312 18.6061 124.484 18.6061Z" fill="#FFCA05"/>
</g>
<defs>
<clipPath id="clip0_1_133">
<rect width="177" height="63" fill="white" transform="translate(0.5 0.5)"/>
</clipPath>
</defs>
</svg>
