<svg width="126" height="36" viewBox="0 0 126 36" fill="none" xmlns="http://www.w3.org/2000/svg">
<g clip-path="url(#clip0_1_15)">
<mask id="mask0_1_15" style="mask-type:luminance" maskUnits="userSpaceOnUse" x="0" y="0" width="125" height="36">
<path d="M124.808 0.201172H0.217285V35.7995H124.808V0.201172Z" fill="white"/>
</mask>
<g mask="url(#mask0_1_15)">
<mask id="mask1_1_15" style="mask-type:luminance" maskUnits="userSpaceOnUse" x="0" y="0" width="125" height="36">
<path d="M0.217285 0.201172H124.809V35.7995H0.217285V0.201172Z" fill="white"/>
</mask>
<g mask="url(#mask1_1_15)">
<path d="M47.9578 9.30632C47.9327 9.35879 47.8966 9.40531 47.8521 9.44281C47.8076 9.48031 47.7557 9.50791 47.6997 9.5238L45.3413 10.223C45.0526 10.3064 44.903 10.223 44.7851 9.93429C44.6496 9.36204 44.3112 8.85832 43.8326 8.51651C43.3541 8.1747 42.7678 8.01798 42.1825 8.07539C39.9626 8.07539 39.2028 9.39031 39.2028 11.1608V15.234C39.2028 17.0045 39.9521 18.3194 42.1825 18.3194C44.0181 18.3194 44.957 17.465 44.957 15.6056V15.0493H42.5596C42.5137 15.0532 42.4675 15.0466 42.4244 15.0301C42.3813 15.0135 42.3426 14.9874 42.3111 14.9538C42.2796 14.9201 42.2561 14.8797 42.2424 14.8357C42.2287 14.7916 42.2251 14.7451 42.232 14.6995V12.4924C42.2262 12.4469 42.2305 12.4008 42.2446 12.3572C42.2587 12.3137 42.2822 12.2737 42.3135 12.2403C42.3448 12.2069 42.3831 12.1808 42.4256 12.1639C42.4682 12.147 42.5139 12.1397 42.5596 12.1425H47.8994C47.945 12.1356 47.9916 12.1392 48.0356 12.1528C48.0797 12.1665 48.12 12.19 48.1537 12.2215C48.1874 12.2531 48.2135 12.2918 48.23 12.3349C48.2466 12.3779 48.2531 12.4242 48.2493 12.4701V15.8364C48.2493 19.0547 45.8853 21.4798 42.2115 21.4798C37.8551 21.4798 35.8188 18.8995 35.8188 15.3758V11.0718C35.8188 7.52585 37.8551 4.96777 42.2115 4.96777C45.7351 4.96777 47.3287 6.97685 47.9661 8.99094M59.9528 12.9957V20.8941C59.9552 20.9378 59.9484 20.9815 59.9327 21.0223C59.9171 21.0631 59.8931 21.1002 59.8622 21.1311C59.8312 21.1621 59.7942 21.1861 59.7533 21.2017C59.7125 21.2173 59.6688 21.2242 59.6251 21.2217H57.2167C57.1715 21.2266 57.1257 21.2216 57.0826 21.2072C57.0395 21.1927 56.9999 21.1692 56.9667 21.1381C56.9335 21.107 56.9074 21.0691 56.8902 21.027C56.8729 20.9849 56.865 20.9396 56.8668 20.8941V19.6009C56.5248 20.1766 56.0367 20.6516 55.452 20.9781C54.8673 21.3045 54.2068 21.4707 53.5373 21.4598C51.2623 21.4598 49.7917 19.9947 49.7917 17.742C49.7917 15.4893 51.1733 14.2378 54.5418 14.002C55.2696 13.9465 56.0006 13.9465 56.7283 14.002V13.1031C56.7283 11.9211 56.1165 11.4383 55.0636 11.4383C54.6978 11.3866 54.3258 11.4714 54.0187 11.6766C53.7116 11.8819 53.4909 12.1931 53.3988 12.5508C53.2875 12.8116 53.2047 12.8561 52.9605 12.7894L50.552 12.1775C50.3134 12.1108 50.2912 11.9779 50.3357 11.806C50.6633 10.0745 52.3058 8.80238 55.1915 8.80238C58.2324 8.80238 59.9416 10.2486 59.9416 12.964M56.7233 17.0985V15.9943C56.0807 15.9711 55.4372 15.9934 54.7977 16.0611C53.5768 16.2107 52.9165 16.5828 52.9165 17.5262C52.9165 18.375 53.4728 18.8355 54.4261 18.8355C54.9437 18.8462 55.4501 18.6847 55.8659 18.3763C56.2817 18.0679 56.5833 17.6302 56.7233 17.1318M68.6432 8.83575C69.3171 8.82359 69.9762 9.03434 70.518 9.43526C71.0599 9.83619 71.4541 10.4048 71.6396 11.0529C72.5384 9.73795 73.632 8.83297 75.1633 8.83297C77.2831 8.83297 78.4928 10.4977 78.4928 13.0336V20.8941C78.4894 20.9418 78.4763 20.9884 78.4545 21.0309C78.4326 21.0734 78.4025 21.1111 78.3657 21.1417C78.3288 21.1723 78.2864 21.1952 78.2406 21.2089C78.1948 21.2227 78.1465 21.227 78.099 21.2217H75.5854C75.5379 21.2271 75.4897 21.2228 75.444 21.2091C75.3981 21.1954 75.3554 21.1725 75.3187 21.1419C75.2819 21.1113 75.2516 21.0736 75.2298 21.031C75.208 20.9884 75.195 20.9419 75.1916 20.8941V13.6076C75.1916 12.4951 74.7088 11.8538 73.8567 11.8538C73.0045 11.8538 72.3032 12.6031 71.9755 13.7405V20.8936C71.9786 20.9355 71.973 20.9776 71.959 21.0173C71.945 21.0569 71.923 21.0933 71.8945 21.124C71.8657 21.1548 71.831 21.1793 71.7924 21.196C71.7538 21.2127 71.7122 21.2213 71.6702 21.2212H68.9475C68.7533 21.2212 68.6643 21.0882 68.6643 20.8936V13.607C68.6643 12.4946 68.1815 11.8533 67.3294 11.8533C66.4773 11.8533 65.7536 12.6414 65.4483 13.7622V20.893C65.4526 20.9371 65.4471 20.9816 65.4321 21.0233C65.4172 21.065 65.3932 21.1029 65.3619 21.1342C65.3305 21.1656 65.2927 21.1896 65.2509 21.2045C65.2092 21.2194 65.1647 21.2249 65.1206 21.2206H62.4508C62.4067 21.2249 62.3622 21.2194 62.3204 21.2045C62.2787 21.1896 62.2409 21.1656 62.2095 21.1342C62.1782 21.1029 62.1542 21.065 62.1393 21.0233C62.1243 20.9816 62.1188 20.9371 62.1231 20.893V9.40699C62.123 9.36495 62.1316 9.32334 62.1483 9.28476C62.165 9.24618 62.1895 9.21147 62.2203 9.1828C62.2511 9.15414 62.2874 9.13213 62.3271 9.11816C62.3667 9.10419 62.4088 9.09856 62.4508 9.10163H65.0094C65.0515 9.09769 65.094 9.10271 65.134 9.11636C65.1741 9.13001 65.2108 9.15198 65.2417 9.18082C65.2726 9.20966 65.2971 9.24473 65.3136 9.28371C65.33 9.32269 65.338 9.3647 65.337 9.40699V10.7831C65.6895 10.2102 66.1777 9.73287 66.7584 9.39334C67.3391 9.05381 67.9944 8.8625 68.6666 8.83631M92.2566 9.10274C92.3233 9.38586 92.2566 9.60334 91.9734 9.65896L89.654 10.3359C89.6018 10.361 89.5443 10.3734 89.4864 10.372C89.4284 10.3706 89.3717 10.3554 89.3208 10.3278C89.2699 10.3001 89.2261 10.2608 89.1933 10.213C89.1606 10.1652 89.1397 10.1103 89.1324 10.0528C88.7985 8.94032 88.2334 8.08262 86.6131 8.08262C84.6207 8.08262 83.9883 9.39754 83.9883 11.168V15.2412C83.9883 17.0117 84.7114 18.3266 86.6131 18.3266C88.3224 18.3266 88.9771 17.361 89.2379 16.1573C89.2439 16.0985 89.264 16.042 89.2968 15.9928C89.3296 15.9436 89.3741 15.9032 89.4262 15.8752C89.4783 15.8472 89.5364 15.8325 89.5956 15.8323C89.6547 15.8322 89.713 15.8465 89.7652 15.8742L92.0904 16.629C92.1465 16.6452 92.1988 16.6728 92.2439 16.7101C92.289 16.7474 92.326 16.7935 92.3526 16.8457C92.3792 16.8978 92.3946 16.9549 92.3983 17.0133C92.4019 17.0717 92.3933 17.1302 92.3734 17.1852C91.8171 19.5492 90.1201 21.4681 86.5742 21.4681C82.5955 21.4681 80.5809 18.8878 80.5809 15.3641V11.0718C80.5809 7.52585 82.6339 4.96777 86.5742 4.96777C90.0311 4.96777 91.652 6.80331 92.2621 9.12388M103.9 12.9996V20.898C103.903 20.9417 103.896 20.9853 103.88 21.0262C103.865 21.067 103.841 21.1041 103.81 21.135C103.779 21.166 103.742 21.19 103.701 21.2056C103.66 21.2212 103.616 21.228 103.573 21.2256H101.164C101.119 21.2305 101.073 21.2255 101.03 21.2111C100.987 21.1966 100.948 21.173 100.914 21.142C100.881 21.1109 100.855 21.073 100.838 21.0309C100.821 20.9888 100.813 20.9435 100.815 20.898V19.6009C100.472 20.1766 99.9845 20.6516 99.3998 20.9781C98.8151 21.3045 98.1546 21.4707 97.4851 21.4598C95.2101 21.4598 93.745 19.9947 93.745 17.742C93.745 15.4893 95.1212 14.2378 98.4897 14.002C99.2192 13.9464 99.952 13.9464 100.682 14.002V13.1031C100.682 11.9211 100.066 11.4383 99.0169 11.4383C98.6516 11.3895 98.2811 11.4756 97.9747 11.6804C97.6682 11.8851 97.4468 12.1946 97.3521 12.5508C97.2464 12.8116 97.158 12.8561 96.9138 12.7894L94.5109 12.1775C94.2668 12.1108 94.2445 11.9779 94.2884 11.806C94.6161 10.0745 96.2586 8.80238 99.1493 8.80238C102.19 8.80238 103.894 10.2486 103.894 12.964M100.681 17.0985V15.9943C100.038 15.9709 99.3951 15.9933 98.7556 16.0611C97.5318 16.2107 96.8743 16.5828 96.8743 17.5262C96.8743 18.375 97.4306 18.8355 98.3839 18.8355C98.9013 18.8453 99.4072 18.6834 99.8228 18.3751C100.238 18.0669 100.54 17.6297 100.681 17.1318M113.272 9.31855V11.6603C113.272 11.9434 113.161 12.0541 112.878 12.0541H112.524C110.775 12.0541 109.749 12.8422 109.399 14.1571V20.8941C109.402 20.9347 109.397 20.9754 109.384 21.014C109.371 21.0526 109.351 21.0881 109.324 21.1187C109.297 21.1492 109.264 21.174 109.228 21.1917C109.191 21.2094 109.151 21.2196 109.111 21.2217H106.336C106.296 21.2196 106.256 21.2094 106.219 21.1917C106.182 21.174 106.15 21.1492 106.123 21.1187C106.096 21.0881 106.075 21.0526 106.063 21.014C106.05 20.9754 106.044 20.9347 106.047 20.8941V9.40699C106.046 9.36445 106.053 9.32201 106.069 9.28259C106.085 9.24318 106.11 9.20773 106.141 9.1787C106.172 9.14966 106.209 9.12774 106.249 9.11443C106.29 9.10112 106.333 9.09676 106.375 9.10163H108.872C109.133 9.10163 109.2 9.2735 109.2 9.45149V11.0718C109.52 10.41 110.026 9.85546 110.655 9.47527C111.284 9.09508 112.011 8.90559 112.746 8.92975C113.184 8.92975 113.302 8.9965 113.302 9.30131M117.569 16.1429V16.6034C117.569 17.8744 118.229 18.7677 119.789 18.7677C121.349 18.7677 121.715 18.2115 122.108 17.48C122.303 17.1524 122.392 17.1085 122.741 17.2575L124.465 18.1341C124.821 18.3116 124.842 18.484 124.688 18.8111C123.944 20.4758 122.085 21.4581 119.766 21.4581C116.261 21.4581 114.426 19.3829 114.426 16.5361V13.7633C114.426 10.9889 116.15 8.83575 119.742 8.83575C123.155 8.83575 124.82 11.005 124.82 13.6971V15.6228C124.82 15.9504 124.709 16.179 124.264 16.179L117.569 16.1429ZM117.569 13.5842V14.0008H121.792V13.5848C121.818 13.3025 121.782 13.0179 121.686 12.7511C121.59 12.4843 121.437 12.242 121.236 12.0412C121.036 11.8405 120.794 11.6863 120.528 11.5896C120.261 11.4929 119.977 11.4561 119.694 11.4817C119.411 11.4557 119.125 11.4921 118.857 11.5883C118.588 11.6844 118.345 11.8381 118.142 12.0385C117.94 12.2388 117.783 12.4811 117.684 12.7482C117.585 13.0153 117.546 13.3003 117.569 13.5842Z" fill="white"/>
<path d="M15.3499 0.201194H0.666713C0.607904 0.200606 0.549562 0.211682 0.49506 0.23378C0.440558 0.255879 0.390978 0.288563 0.349185 0.329942C0.307393 0.37132 0.274217 0.420573 0.251577 0.474853C0.228937 0.529132 0.217282 0.587361 0.217285 0.646173V21.9996C0.219054 25.6587 1.67387 29.1673 4.26187 31.7541C6.84987 34.3408 10.3592 35.7939 14.0183 35.7939H15.3499C19.0084 35.7939 22.517 34.3406 25.1039 31.7537C27.6909 29.1667 29.1442 25.6581 29.1442 21.9996V13.9967C29.1442 12.1852 28.7874 10.3914 28.0942 8.71778C27.4009 7.04418 26.3849 5.5235 25.1039 4.24258C23.823 2.96165 22.3023 1.94557 20.6287 1.25234C18.9551 0.559108 17.1614 0.202307 15.3499 0.202307M24.7117 22.2315C24.7117 27.4256 20.8993 31.3492 14.9616 31.3492C7.93099 31.3492 4.64538 27.1775 4.64538 21.4829V14.5295C4.64538 8.80041 7.93044 4.63541 14.9505 4.63541C20.6384 4.63541 23.2188 7.88709 24.2455 11.1393C24.2851 11.2256 24.3056 11.3195 24.3056 11.4144C24.3057 11.5094 24.2852 11.6032 24.2457 11.6895C24.2061 11.7758 24.1484 11.8526 24.0765 11.9146C24.0046 11.9766 23.9201 12.0224 23.8289 12.0488L20.011 13.1612C19.556 13.2997 19.3063 13.1612 19.1678 12.7007C18.5632 10.7583 17.2922 9.69704 14.9616 9.69704C11.3545 9.69704 10.1558 11.8168 10.1558 14.6914V21.2771C10.1558 24.1405 11.3545 26.2714 14.9616 26.2714C17.9302 26.2714 19.4843 24.8897 19.4843 21.8872V21.0273H15.5056C15.4301 21.0376 15.3533 21.0303 15.2811 21.006C15.2089 20.9817 15.1434 20.9411 15.0895 20.8872C15.0357 20.8333 14.995 20.7678 14.9707 20.6956C14.9464 20.6234 14.9391 20.5466 14.9494 20.4711V16.8267C14.9433 16.7521 14.9536 16.6771 14.9794 16.6069C15.0052 16.5367 15.046 16.4729 15.0989 16.42C15.1518 16.3671 15.2156 16.3263 15.2858 16.3005C15.356 16.2747 15.431 16.2644 15.5056 16.2705H24.1454C24.2182 16.261 24.2922 16.2679 24.362 16.2906C24.4318 16.3133 24.4957 16.3513 24.549 16.4018C24.6022 16.4523 24.6436 16.5141 24.67 16.5826C24.6964 16.6511 24.7072 16.7246 24.7017 16.7978L24.7117 22.2315Z" fill="#734BC3"/>
<path d="M39.0751 25.9436C39.0814 25.9546 39.0851 25.9669 39.0859 25.9796C39.0867 25.9923 39.0847 26.005 39.0798 26.0167C39.075 26.0285 39.0676 26.0389 39.0581 26.0474C39.0486 26.0558 39.0373 26.062 39.025 26.0654L38.6357 26.1872C38.5745 26.1872 38.5411 26.1872 38.5138 26.1371C38.4579 25.9214 38.3275 25.7324 38.1457 25.6035C37.964 25.4746 37.7425 25.414 37.5204 25.4324C37.3695 25.4118 37.2158 25.4263 37.0715 25.475C36.9271 25.5236 36.796 25.6049 36.6882 25.7126C36.5805 25.8203 36.4992 25.9515 36.4506 26.0959C36.4019 26.2402 36.3874 26.3939 36.408 26.5448V28.0155C36.3874 28.1664 36.4019 28.3201 36.4506 28.4644C36.4992 28.6088 36.5805 28.74 36.6882 28.8477C36.796 28.9554 36.9271 29.0367 37.0715 29.0854C37.2158 29.134 37.3695 29.1486 37.5204 29.1279C38.1473 29.1279 38.5583 28.8393 38.5583 28.1901V27.6339H37.6489C37.5989 27.6339 37.571 27.6339 37.571 27.5505V27.2423C37.571 27.1867 37.571 27.1589 37.6489 27.1589H39.0584C39.07 27.1572 39.0818 27.1581 39.093 27.1616C39.1042 27.1651 39.1145 27.1711 39.123 27.1791C39.1316 27.1871 39.1382 27.197 39.1424 27.2079C39.1467 27.2189 39.1484 27.2306 39.1474 27.2423V28.2636C39.1493 28.4709 39.1074 28.6764 39.0243 28.8664C38.9413 29.0564 38.8189 29.2267 38.6654 29.3661C38.5119 29.5056 38.3306 29.6109 38.1334 29.6753C37.9363 29.7397 37.7278 29.7617 37.5215 29.7398C37.2947 29.7664 37.0648 29.742 36.8486 29.6683C36.6324 29.5946 36.4355 29.4735 36.2721 29.3138C36.1088 29.1542 35.9832 28.96 35.9046 28.7456C35.826 28.5311 35.7964 28.3018 35.8178 28.0744V26.517C35.7965 26.2897 35.8262 26.0604 35.9048 25.8461C35.9835 25.6317 36.109 25.4376 36.2724 25.278C36.4357 25.1184 36.6326 24.9974 36.8488 24.9237C37.0649 24.85 37.2948 24.8256 37.5215 24.8522C37.8649 24.8249 38.2072 24.9171 38.4903 25.1133C38.7734 25.3094 38.98 25.5975 39.0751 25.9285M42.0715 28.5812V28.0249C41.809 28.0084 41.5457 28.0084 41.2833 28.0249C40.7949 28.0806 40.5007 28.2524 40.5007 28.6574C40.4944 28.7423 40.5077 28.8276 40.5395 28.9066C40.5714 28.9856 40.621 29.0562 40.6844 29.113C40.7479 29.1698 40.8236 29.2113 40.9056 29.2342C40.9876 29.2572 41.0738 29.261 41.1576 29.2453C41.3598 29.2432 41.5564 29.1783 41.7202 29.0596C41.884 28.9409 42.0069 28.7743 42.072 28.5828M42.6282 27.1622V29.5874C42.6282 29.6374 42.6282 29.6597 42.5448 29.6597H42.1554C42.0998 29.6597 42.072 29.6597 42.072 29.5874V29.1268C41.9653 29.3073 41.8135 29.4569 41.6316 29.5611C41.4496 29.6652 41.2437 29.7203 41.0341 29.7209C40.8907 29.7355 40.7459 29.7194 40.6093 29.6735C40.4727 29.6275 40.3475 29.5529 40.2421 29.4546C40.1368 29.3563 40.0536 29.2366 39.9984 29.1035C39.9431 28.9704 39.9169 28.827 39.9216 28.683C39.9216 28.0338 40.36 27.6784 41.2149 27.6122C41.4938 27.5929 41.7737 27.5929 42.0525 27.6122V27.2034C42.0525 26.7373 41.7805 26.5432 41.3422 26.5432C41.1863 26.5173 41.0262 26.5508 40.8937 26.6371C40.7612 26.7234 40.6658 26.8562 40.6264 27.0093C40.6264 27.0705 40.5819 27.076 40.5151 27.0649L40.138 26.9592C40.0768 26.9592 40.0602 26.9147 40.0768 26.8647C40.1931 26.3763 40.6331 26.0598 41.3562 26.0598C42.0792 26.0598 42.6216 26.4152 42.6216 27.1723M45.1741 26.0515C45.3665 26.0474 45.5548 26.1081 45.7087 26.2238C45.8626 26.3395 45.9732 26.5034 46.0229 26.6895C46.1257 26.5034 46.2747 26.347 46.4555 26.2352C46.6363 26.1235 46.8428 26.0602 47.0552 26.0515C47.1907 26.0526 47.3244 26.0824 47.4475 26.1389C47.5706 26.1954 47.6804 26.2774 47.7695 26.3794C47.8587 26.4814 47.9253 26.6011 47.9648 26.7306C48.0044 26.8602 48.0161 26.9967 47.9991 27.1311V29.5785C47.9991 29.6341 47.9658 29.6563 47.9101 29.6563H47.5275C47.4663 29.6563 47.4385 29.6563 47.4385 29.5785V27.2423C47.4385 26.8096 47.2443 26.5749 46.8822 26.5749C46.7014 26.5956 46.531 26.6704 46.3934 26.7895C46.2558 26.9085 46.1573 27.0664 46.1108 27.2423V29.5896C46.1108 29.6452 46.1107 29.6675 46.0329 29.6675H45.6074C45.5462 29.6675 45.5295 29.6675 45.5295 29.5896V27.2423C45.5295 26.8096 45.3409 26.5749 44.9733 26.5749C44.7943 26.6007 44.6265 26.6773 44.4898 26.7956C44.3531 26.9139 44.2531 27.069 44.2018 27.2423V29.5618C44.2018 29.6174 44.2018 29.6397 44.1239 29.6397H43.7023C43.6411 29.6397 43.6244 29.6397 43.6244 29.5618V26.1877C43.6244 26.1432 43.6244 26.1154 43.7023 26.1154H44.1128C44.174 26.1154 44.1907 26.1432 44.1907 26.1877V26.6539C44.2908 26.4778 44.434 26.33 44.6067 26.2243C44.7795 26.1186 44.9762 26.0584 45.1785 26.0492M49.5844 27.4865V28.3081C49.5763 28.4265 49.5935 28.5453 49.6348 28.6566C49.6762 28.7679 49.7407 28.8691 49.8241 28.9536C49.9075 29.038 50.0079 29.1038 50.1187 29.1465C50.2294 29.1892 50.348 29.2079 50.4665 29.2014C50.9772 29.2014 51.2825 28.9016 51.2825 28.3081V27.481C51.2825 26.8925 50.9772 26.5765 50.4665 26.5765C50.3483 26.5739 50.2309 26.596 50.1217 26.6414C50.0126 26.6868 49.9141 26.7545 49.8326 26.8402C49.7511 26.9258 49.6884 27.0276 49.6486 27.1389C49.6087 27.2502 49.5925 27.3686 49.6011 27.4865M49.6011 24.8339V26.6043C49.7098 26.4272 49.8638 26.2822 50.0472 26.1844C50.2306 26.0867 50.4368 26.0396 50.6445 26.0481C50.8167 26.0454 50.9874 26.0795 51.1454 26.148C51.3033 26.2166 51.4448 26.3181 51.5604 26.4457C51.676 26.5734 51.763 26.7242 51.8156 26.8881C51.8682 27.0521 51.8852 27.2254 51.8654 27.3964V28.3787C51.8846 28.5512 51.8664 28.7258 51.8121 28.8907C51.7578 29.0556 51.6687 29.2069 51.5508 29.3342C51.4329 29.4616 51.2889 29.5621 51.1287 29.6289C50.9685 29.6957 50.7958 29.7273 50.6223 29.7214C50.4164 29.7279 50.2125 29.6799 50.0312 29.5823C49.85 29.4846 49.6977 29.3407 49.5899 29.1652V29.5757C49.5899 29.6258 49.551 29.6424 49.5121 29.6424H49.1016C49.0515 29.6424 49.0237 29.6424 49.0237 29.5757V24.8339C49.0228 24.8242 49.0241 24.8144 49.0275 24.8052C49.0308 24.7961 49.0361 24.7878 49.043 24.7809C49.0499 24.774 49.0582 24.7687 49.0674 24.7654C49.0765 24.762 49.0863 24.7607 49.096 24.7616H49.5343C49.5844 24.7616 49.6011 24.7616 49.6011 24.8339ZM53.3522 24.8339V29.5785C53.3522 29.6341 53.3522 29.6563 53.2744 29.6563H52.8527C52.786 29.6563 52.7693 29.6563 52.7693 29.5785V24.8339C52.7693 24.7838 52.7693 24.756 52.8527 24.756H53.2744C53.285 24.754 53.296 24.7547 53.3064 24.7579C53.3167 24.7611 53.3261 24.7668 53.3338 24.7744C53.3415 24.7821 53.3472 24.7915 53.3504 24.8019C53.3536 24.8122 53.3542 24.8232 53.3522 24.8339ZM54.9074 26.1911V29.584C54.9074 29.6341 54.9074 29.6563 54.8351 29.6563H54.4135C54.3468 29.6563 54.3301 29.6563 54.3301 29.584V26.1911C54.3301 26.141 54.3301 26.1188 54.4135 26.1188H54.8351C54.8907 26.1188 54.9074 26.1188 54.9074 26.1911ZM54.9074 24.8561V25.4774C54.9074 25.5386 54.9074 25.572 54.8129 25.572H54.4235C54.4107 25.5739 54.3976 25.5727 54.3852 25.5686C54.3729 25.5645 54.3617 25.5576 54.3525 25.5484C54.3433 25.5392 54.3364 25.528 54.3323 25.5157C54.3282 25.5034 54.3271 25.4903 54.329 25.4774V24.8561C54.3271 24.8433 54.3282 24.8302 54.3323 24.8179C54.3364 24.8055 54.3433 24.7943 54.3525 24.7852C54.3617 24.776 54.3729 24.7691 54.3852 24.765C54.3976 24.7609 54.4107 24.7597 54.4235 24.7616H54.8129C54.8852 24.7616 54.9074 24.795 54.9074 24.8561ZM56.4888 27.2701V29.584C56.4888 29.6341 56.4888 29.6563 56.4165 29.6563H56.0171C55.9503 29.6563 55.9337 29.6563 55.9337 29.584V26.1877C55.9337 26.1432 55.9337 26.1154 56.0115 26.1154H56.422C56.4832 26.1154 56.4999 26.1432 56.4999 26.1877V26.6539C56.6217 26.4697 56.7868 26.3183 56.9807 26.2128C57.1747 26.1074 57.3916 26.0512 57.6123 26.0492C57.7611 26.0453 57.909 26.0738 58.0456 26.133C58.1822 26.1922 58.3042 26.2805 58.4031 26.3918C58.502 26.503 58.5753 26.6346 58.618 26.7772C58.6607 26.9198 58.6717 27.07 58.6503 27.2173V29.584C58.6503 29.6341 58.6503 29.6563 58.5668 29.6563H58.1452C58.0896 29.6563 58.0618 29.6563 58.0618 29.584V27.3091C58.0618 26.8541 57.8565 26.586 57.4127 26.586C57.2129 26.5985 57.0213 26.67 56.8623 26.7915C56.7033 26.913 56.5839 27.079 56.5194 27.2685M60.0152 27.3241C60.0062 27.4294 60.0207 27.5354 60.0578 27.6343C60.0949 27.7333 60.1536 27.8227 60.2297 27.8961C60.3057 27.9695 60.3972 28.025 60.4974 28.0585C60.5976 28.0921 60.7041 28.1028 60.809 28.09C60.911 28.1034 61.0148 28.0933 61.1123 28.0606C61.2099 28.0278 61.2987 27.9732 61.372 27.901C61.4453 27.8288 61.5012 27.7408 61.5354 27.6437C61.5696 27.5466 61.5812 27.443 61.5693 27.3408C61.5769 27.2342 61.5624 27.1271 61.5268 27.0263C61.4912 26.9255 61.4352 26.8332 61.3623 26.7549C61.2894 26.6767 61.2013 26.6144 61.1032 26.5717C61.0052 26.5291 60.8995 26.507 60.7926 26.507C60.6857 26.507 60.5799 26.5291 60.4819 26.5717C60.3839 26.6144 60.2957 26.6767 60.2228 26.7549C60.1499 26.8332 60.0939 26.9255 60.0583 27.0263C60.0227 27.1271 60.0082 27.2342 60.0158 27.3408M61.8747 30.0045C61.8747 29.7492 61.7306 29.5106 61.2072 29.5106H60.5581C60.0697 29.5106 59.9201 29.7604 59.9201 30.0157C59.9201 30.3705 60.1982 30.6042 60.8802 30.6042C61.5621 30.6042 61.8736 30.36 61.8736 30.0051M62.4298 29.9662C62.4298 30.5224 61.9971 31.0263 60.8485 31.0263C59.7883 31.0263 59.3722 30.627 59.3722 30.0718C59.3746 29.9024 59.4294 29.7378 59.529 29.6007C59.6285 29.4636 59.7681 29.3606 59.9285 29.3059C59.8555 29.2548 59.7951 29.1878 59.7519 29.11C59.7086 29.0321 59.6836 28.9454 59.6787 28.8565C59.6827 28.7468 59.719 28.6407 59.7832 28.5517C59.8473 28.4626 59.9364 28.3945 60.0392 28.3559C59.863 28.2544 59.718 28.1066 59.6199 27.9285C59.5219 27.7505 59.4745 27.5489 59.4829 27.3458C59.4745 27.1748 59.5038 27.004 59.5687 26.8455C59.6336 26.6871 59.7326 26.5448 59.8585 26.4289C59.9845 26.3129 60.1345 26.2261 60.2978 26.1745C60.461 26.1229 60.6337 26.1079 60.8034 26.1304H62.3497C62.3942 26.1304 62.4164 26.1583 62.4164 26.2083V26.5248C62.4164 26.586 62.3831 26.6082 62.3386 26.6082H61.7228C61.8424 26.7067 61.9372 26.8318 61.9998 26.9735C62.0624 27.1152 62.091 27.2695 62.0833 27.4242C62.0833 28.0789 61.645 28.5367 60.804 28.5367H60.5142C60.27 28.5367 60.1643 28.6479 60.1643 28.7809C60.1643 28.9138 60.2755 29.025 60.5142 29.025H61.2745C62.1089 29.025 62.4342 29.4411 62.4342 29.9573M67.7284 25.8507C67.734 25.8615 67.7368 25.8735 67.7366 25.8857C67.7363 25.8979 67.7329 25.9098 67.7268 25.9203C67.7207 25.9309 67.7121 25.9397 67.7017 25.946C67.6912 25.9523 67.6794 25.9559 67.6672 25.9563L67.3068 26.0948C67.2955 26.0992 67.2834 26.1012 67.2713 26.1008C67.2592 26.1003 67.2473 26.0974 67.2364 26.0922C67.2254 26.087 67.2157 26.0796 67.2077 26.0705C67.1997 26.0614 67.1937 26.0508 67.19 26.0392C67.1285 25.8484 67.005 25.6836 66.8391 25.571C66.6732 25.4584 66.4745 25.4045 66.2744 25.4179C65.7182 25.4179 65.4034 25.6788 65.4034 26.106C65.4034 26.5332 65.6364 26.6622 66.5158 27.016C67.3952 27.3697 67.7701 27.7485 67.7701 28.4065C67.7652 28.5964 67.7208 28.7832 67.6396 28.955C67.5584 29.1267 67.4423 29.2796 67.2986 29.4039C67.155 29.5282 66.987 29.6211 66.8053 29.6768C66.6237 29.7324 66.4324 29.7495 66.2438 29.727C65.8991 29.7621 65.5532 29.673 65.2683 29.4757C64.9835 29.2784 64.7785 28.9858 64.6903 28.6507C64.6903 28.5839 64.6903 28.5561 64.7459 28.5344L65.123 28.4126C65.1953 28.4126 65.2232 28.4126 65.2398 28.4794C65.2937 28.6981 65.4254 28.8897 65.6103 29.0184C65.7951 29.1471 66.0206 29.204 66.2444 29.1786C66.8006 29.1786 67.1599 28.9004 67.1599 28.4516C67.1599 28.0027 66.9491 27.8397 66.1443 27.5305C65.1787 27.1478 64.8127 26.7701 64.8127 26.1154C64.8197 25.9342 64.8642 25.7564 64.9436 25.5932C65.0229 25.4301 65.1353 25.2853 65.2736 25.1679C65.4118 25.0505 65.573 24.9631 65.7468 24.9112C65.9206 24.8594 66.1033 24.8442 66.2833 24.8667C66.6012 24.8447 66.9174 24.9293 67.1818 25.1072C67.4461 25.2852 67.6436 25.5462 67.7428 25.849M68.625 28.5628V26.1911C68.625 26.141 68.6528 26.1132 68.7085 26.1132H69.1301C69.1857 26.1132 69.2135 26.141 69.2135 26.1911V28.4605C69.2135 28.921 69.4187 29.1875 69.8571 29.1875C70.0578 29.1758 70.2504 29.1039 70.4098 28.9811C70.5691 28.8584 70.6878 28.6905 70.7503 28.4994V26.1911C70.7503 26.141 70.7503 26.1132 70.8338 26.1132H71.2498C71.3166 26.1132 71.3333 26.141 71.3333 26.1911V29.5785C71.3333 29.6285 71.3333 29.6563 71.2554 29.6563H70.8449C70.8342 29.6583 70.8233 29.6577 70.8129 29.6545C70.8025 29.6513 70.7931 29.6456 70.7855 29.6379C70.7778 29.6303 70.7721 29.6208 70.7689 29.6105C70.7657 29.6001 70.765 29.5891 70.767 29.5785V29.1179C70.647 29.3042 70.4824 29.4577 70.2882 29.5646C70.094 29.6714 69.8762 29.7282 69.6546 29.7298C69.5061 29.7328 69.3586 29.7036 69.2225 29.6441C69.0864 29.5846 68.9648 29.4963 68.8661 29.3852C68.7674 29.2742 68.694 29.143 68.651 29.0008C68.6079 28.8587 68.5962 28.7088 68.6167 28.5617M74.5866 28.3047V27.4587C74.6047 27.3441 74.5967 27.2269 74.5633 27.1157C74.5298 27.0046 74.4717 26.9025 74.3932 26.817C74.3148 26.7314 74.2181 26.6647 74.1103 26.6217C74.0025 26.5787 73.8864 26.5606 73.7706 26.5688C73.6539 26.5654 73.5378 26.5865 73.4297 26.6306C73.3217 26.6748 73.224 26.741 73.143 26.8251C73.0621 26.9092 72.9996 27.0094 72.9596 27.119C72.9196 27.2287 72.9029 27.3456 72.9107 27.462V28.2964C72.9021 28.4141 72.9183 28.5322 72.9582 28.6432C72.9981 28.7543 73.0609 28.8557 73.1425 28.9409C73.224 29.0262 73.3226 29.0933 73.4318 29.1381C73.5409 29.1829 73.6583 29.2042 73.7762 29.2008C74.2868 29.2008 74.5922 28.8899 74.5922 28.3019M72.4057 30.949C72.396 30.9499 72.3862 30.9486 72.377 30.9452C72.3679 30.9419 72.3595 30.9366 72.3527 30.9297C72.3458 30.9228 72.3405 30.9145 72.3371 30.9053C72.3338 30.8962 72.3325 30.8864 72.3334 30.8767V26.1877C72.3334 26.1377 72.3612 26.1154 72.4112 26.1154H72.8217C72.8319 26.1137 72.8423 26.1143 72.8521 26.1172C72.862 26.1201 72.871 26.1253 72.8786 26.1323C72.8861 26.1393 72.8919 26.1479 72.8956 26.1575C72.8992 26.1672 72.9006 26.1775 72.8996 26.1877V26.5871C73.0092 26.4134 73.1619 26.2709 73.3427 26.1734C73.5236 26.076 73.7265 26.0269 73.9319 26.0309C74.1047 26.0252 74.2767 26.0566 74.4363 26.1229C74.5959 26.1893 74.7394 26.289 74.8572 26.4155C74.975 26.542 75.0643 26.6923 75.1192 26.8562C75.174 27.0201 75.1931 27.1939 75.1751 27.3658V28.3603C75.1939 28.5312 75.1763 28.7041 75.1233 28.8677C75.0704 29.0312 74.9833 29.1817 74.8679 29.3091C74.7525 29.4366 74.6114 29.5381 74.4539 29.6069C74.2964 29.6758 74.1261 29.7105 73.9542 29.7086C73.747 29.7188 73.5409 29.6724 73.3581 29.5745C73.1753 29.4765 73.0225 29.3306 72.9163 29.1524V30.8506C72.9171 30.8603 72.9158 30.87 72.9125 30.8792C72.9092 30.8884 72.9039 30.8967 72.897 30.9036C72.8901 30.9105 72.8818 30.9158 72.8726 30.9191C72.8635 30.9224 72.8537 30.9237 72.844 30.9229L72.4057 30.949ZM78.3472 28.3047V27.4587C78.3654 27.3441 78.3574 27.2269 78.3239 27.1157C78.2904 27.0046 78.2323 26.9025 78.1539 26.817C78.0754 26.7314 77.9787 26.6647 77.8709 26.6217C77.7631 26.5787 77.647 26.5606 77.5313 26.5688C77.4146 26.5654 77.2984 26.5865 77.1904 26.6306C77.0823 26.6748 76.9846 26.741 76.9037 26.8251C76.8227 26.9092 76.7602 27.0094 76.7202 27.119C76.6802 27.2287 76.6635 27.3456 76.6713 27.462V28.2964C76.6628 28.4136 76.6788 28.5313 76.7184 28.6419C76.758 28.7525 76.8203 28.8537 76.9012 28.9388C76.9822 29.024 77.0801 29.0913 77.1886 29.1364C77.2971 29.1815 77.4138 29.2034 77.5313 29.2008C78.0419 29.2008 78.3472 28.8899 78.3472 28.3019M76.1607 30.949C76.151 30.9499 76.1413 30.9486 76.1321 30.9452C76.1229 30.9419 76.1146 30.9366 76.1077 30.9297C76.1008 30.9228 76.0955 30.9145 76.0922 30.9053C76.0889 30.8962 76.0876 30.8864 76.0884 30.8767V26.1877C76.0884 26.1377 76.1162 26.1154 76.1663 26.1154H76.5768C76.5869 26.1137 76.5973 26.1143 76.6072 26.1172C76.6171 26.1201 76.6261 26.1253 76.6337 26.1323C76.6412 26.1393 76.647 26.1479 76.6507 26.1575C76.6543 26.1672 76.6557 26.1775 76.6547 26.1877V26.5871C76.7643 26.4134 76.9169 26.2709 77.0978 26.1734C77.2786 26.076 77.4816 26.0269 77.687 26.0309C77.8602 26.0244 78.0328 26.0551 78.1931 26.1211C78.3534 26.1871 78.4976 26.2868 78.616 26.4134C78.7344 26.54 78.8243 26.6905 78.8794 26.8548C78.9346 27.0192 78.9538 27.1934 78.9357 27.3658V28.3603C78.9546 28.5315 78.9369 28.7046 78.8837 28.8684C78.8306 29.0321 78.7433 29.1827 78.6276 29.3102C78.512 29.4376 78.3705 29.5391 78.2127 29.6078C78.0548 29.6765 77.8842 29.7108 77.712 29.7086C77.505 29.7176 77.2994 29.6707 77.1168 29.5728C76.9342 29.475 76.7813 29.3298 76.6741 29.1524V30.8506C76.675 30.8603 76.6737 30.87 76.6704 30.8792C76.667 30.8884 76.6617 30.8967 76.6548 30.9036C76.6479 30.9105 76.6396 30.9158 76.6305 30.9191C76.6213 30.9224 76.6115 30.9237 76.6018 30.9229L76.1607 30.949ZM80.3446 27.4531V28.352C80.3446 28.5772 80.4341 28.7932 80.5933 28.9524C80.7526 29.1116 80.9685 29.2011 81.1937 29.2011C81.4189 29.2011 81.6349 29.1116 81.7941 28.9524C81.9533 28.7932 82.0428 28.5772 82.0428 28.352V27.4531C82.0428 27.228 81.9533 27.012 81.7941 26.8528C81.6349 26.6935 81.4189 26.6041 81.1937 26.6041C80.9685 26.6041 80.7526 26.6935 80.5933 26.8528C80.4341 27.012 80.3446 27.228 80.3446 27.4531ZM82.6252 27.4253V28.352C82.6252 28.7317 82.4743 29.0959 82.2058 29.3644C81.9373 29.6329 81.5732 29.7837 81.1934 29.7837C80.8137 29.7837 80.4496 29.6329 80.1811 29.3644C79.9126 29.0959 79.7617 28.7317 79.7617 28.352V27.442C79.7617 27.0623 79.9126 26.6981 80.1811 26.4296C80.4496 26.1611 80.8137 26.0103 81.1934 26.0103C81.5732 26.0103 81.9373 26.1611 82.2058 26.4296C82.4743 26.6981 82.6252 27.0623 82.6252 27.442M85.2834 26.1327V26.5248C85.2834 26.586 85.2834 26.6082 85.1944 26.6082H85.1221C84.9001 26.6007 84.6817 26.6653 84.4996 26.7923C84.3175 26.9194 84.1815 27.1021 84.1119 27.313V29.5674C84.1119 29.6174 84.0786 29.6341 84.0396 29.6341H83.6013C83.5924 29.635 83.5833 29.6338 83.5748 29.6308C83.5663 29.6277 83.5586 29.6228 83.5522 29.6165C83.5459 29.6101 83.541 29.6024 83.5379 29.5939C83.5349 29.5854 83.5337 29.5763 83.5346 29.5674V26.1877C83.5346 26.1321 83.5346 26.1154 83.6125 26.1154H84.0118C84.0674 26.1154 84.0953 26.1432 84.0953 26.1933V26.7495C84.197 26.5437 84.3563 26.3718 84.5537 26.2546C84.7511 26.1375 84.9783 26.08 85.2077 26.0893C85.2911 26.0893 85.3134 26.0893 85.3134 26.1727M86.9782 25.2828V26.1316H87.733C87.7886 26.1316 87.8108 26.1594 87.8108 26.2206V26.537C87.8108 26.5982 87.8108 26.6205 87.733 26.6205H86.9782V28.6679C86.9782 28.9844 87.15 29.1285 87.4721 29.1285H87.7274C87.783 29.1285 87.8108 29.1285 87.8108 29.2064V29.5668C87.8108 29.628 87.8108 29.6502 87.7274 29.6502H87.3887C87.2626 29.6686 87.134 29.6586 87.0122 29.6212C86.8904 29.5837 86.7784 29.5197 86.6844 29.4337C86.5904 29.3476 86.5167 29.2418 86.4686 29.1238C86.4205 29.0058 86.3993 28.8786 86.4064 28.7514V26.626H85.9236C85.8791 26.626 85.8513 26.626 85.8513 26.5426V26.2261C85.8513 26.1649 85.8791 26.1371 85.9236 26.1371H86.4119V25.2833C86.4119 25.2388 86.4119 25.211 86.4954 25.211H86.8947C86.9615 25.211 86.9782 25.2105 86.9782 25.2828ZM93.3375 25.8879C93.3375 25.9547 93.3375 26.0047 93.2429 26.032L92.6216 26.2595C92.6062 26.2676 92.5891 26.2721 92.5717 26.2728C92.5542 26.2734 92.5369 26.2702 92.5209 26.2632C92.5049 26.2563 92.4906 26.2459 92.4792 26.2327C92.4677 26.2196 92.4594 26.204 92.4547 26.1872C92.4026 26.0463 92.305 25.9267 92.1774 25.8474C92.0498 25.768 91.8995 25.7334 91.75 25.7489C91.3673 25.7489 91.1176 25.9319 91.1176 26.2094C91.1176 26.487 91.3117 26.6032 92.1744 26.903C93.0371 27.2028 93.3842 27.6133 93.3842 28.2936C93.3842 29.1096 92.685 29.7309 91.6749 29.7309C91.3018 29.7761 90.9248 29.6855 90.613 29.4756C90.3012 29.2657 90.0753 28.9506 89.9768 28.5878C89.9717 28.5737 89.9695 28.5586 89.9704 28.5435C89.9713 28.5285 89.9753 28.5138 89.982 28.5003C89.9888 28.4868 89.9982 28.4749 90.0098 28.4652C90.0213 28.4554 90.0347 28.4482 90.0491 28.4438L90.7204 28.2213C90.8094 28.1935 90.8534 28.2213 90.8756 28.3103C90.9123 28.4866 91.0148 28.6423 91.1623 28.7457C91.3098 28.849 91.4911 28.8922 91.6694 28.8665C92.1243 28.8665 92.363 28.6724 92.363 28.3837C92.363 28.095 92.1911 27.9944 91.4919 27.7513C90.4874 27.3908 90.1047 26.9909 90.1047 26.2495C90.1193 26.0522 90.1733 25.8598 90.2635 25.6836C90.3536 25.5075 90.4781 25.3512 90.6297 25.224C90.7812 25.0968 90.9567 25.0012 91.1458 24.9429C91.3348 24.8846 91.5337 24.8647 91.7305 24.8845C92.0751 24.8502 92.4212 24.9328 92.713 25.1191C93.0049 25.3053 93.2257 25.5844 93.3397 25.9113M95.3377 25.3339V26.1332H96.0051C96.0194 26.1314 96.034 26.1329 96.0476 26.1376C96.0613 26.1422 96.0737 26.15 96.0839 26.1602C96.0941 26.1704 96.1018 26.1828 96.1065 26.1964C96.1111 26.2101 96.1126 26.2246 96.1108 26.2389V26.8218C96.1117 26.8357 96.1096 26.8496 96.1045 26.8625C96.0994 26.8755 96.0916 26.8872 96.0815 26.8967C96.0714 26.9063 96.0593 26.9135 96.0461 26.9179C96.0329 26.9222 96.0189 26.9236 96.0051 26.922H95.3377V28.5033C95.3377 28.7085 95.4489 28.8253 95.7148 28.8253H96.0035C96.0702 28.8253 96.1091 28.8587 96.1091 28.9199V29.5785C96.1091 29.6452 96.0702 29.673 96.0035 29.673H95.5563C94.757 29.673 94.3798 29.2514 94.3798 28.6296V26.9053H93.9693C93.9555 26.9069 93.9415 26.9055 93.9283 26.9012C93.9151 26.8968 93.9031 26.8896 93.893 26.88C93.8829 26.8705 93.875 26.8588 93.87 26.8459C93.8649 26.8329 93.8627 26.819 93.8637 26.8051V26.2211C93.8619 26.2068 93.8633 26.1923 93.868 26.1786C93.8727 26.165 93.8804 26.1526 93.8906 26.1424C93.9008 26.1322 93.9132 26.1244 93.9268 26.1198C93.9405 26.1151 93.955 26.1136 93.9693 26.1154H94.3965V25.3334C94.3948 25.3203 94.3961 25.307 94.4002 25.2945C94.4042 25.282 94.411 25.2705 94.4201 25.2609C94.4291 25.2513 94.4402 25.2439 94.4525 25.2391C94.4648 25.2343 94.4779 25.2323 94.4911 25.2333H95.2459C95.3071 25.2333 95.3349 25.2722 95.3349 25.3334M98.6756 28.4521V28.1184C98.4903 28.1073 98.3046 28.1073 98.1193 28.1184C97.7589 28.1629 97.5631 28.2736 97.5631 28.5511C97.5631 28.8287 97.73 28.9405 98.0081 28.9405C98.1608 28.9426 98.3099 28.8942 98.4323 28.8029C98.5547 28.7116 98.6435 28.5824 98.685 28.4354M99.6339 27.2145V29.5451C99.6339 29.558 99.6313 29.5708 99.6262 29.5826C99.6211 29.5945 99.6137 29.6052 99.6043 29.614C99.5949 29.6229 99.5838 29.6297 99.5717 29.6341C99.5596 29.6385 99.5467 29.6404 99.5338 29.6397H98.8235C98.8106 29.6404 98.7977 29.6385 98.7856 29.6341C98.7735 29.6297 98.7624 29.6229 98.753 29.614C98.7436 29.6052 98.7362 29.5945 98.7311 29.5826C98.726 29.5708 98.7234 29.558 98.7234 29.5451V29.1624C98.6242 29.3343 98.4808 29.4766 98.308 29.5744C98.1353 29.6722 97.9396 29.722 97.7411 29.7186C97.5919 29.7307 97.4419 29.7103 97.3015 29.6586C97.161 29.607 97.0335 29.5255 96.9276 29.4197C96.8218 29.3138 96.7403 29.1863 96.6887 29.0458C96.637 28.9054 96.6165 28.7554 96.6286 28.6062C96.6286 27.9571 97.0391 27.5738 98.0326 27.4938C98.2466 27.4743 98.462 27.4743 98.6761 27.4938V27.2423C98.6856 27.1762 98.6795 27.1088 98.6582 27.0455C98.6369 26.9822 98.6011 26.9248 98.5536 26.8779C98.5061 26.8309 98.4483 26.7958 98.3847 26.7752C98.3212 26.7547 98.2537 26.7493 98.1877 26.7595C98.0797 26.7449 97.97 26.7701 97.8791 26.8304C97.7883 26.8907 97.7224 26.9819 97.6938 27.0872C97.6604 27.165 97.6382 27.1817 97.5664 27.1595L96.8561 26.982C96.7838 26.982 96.7783 26.9208 96.795 26.8708C96.8895 26.3602 97.3512 25.9886 98.2211 25.9886C99.0911 25.9886 99.625 26.4102 99.625 27.2095M102.521 26.1332V26.8268C102.521 26.9103 102.488 26.9381 102.405 26.9381H102.3C102.097 26.9124 101.892 26.9613 101.722 27.0756C101.553 27.1899 101.431 27.3618 101.378 27.5594V29.5451C101.38 29.557 101.379 29.569 101.376 29.5805C101.372 29.5919 101.366 29.6025 101.358 29.6114C101.35 29.6204 101.341 29.6276 101.33 29.6324C101.319 29.6373 101.307 29.6398 101.295 29.6397H100.485C100.473 29.6398 100.461 29.6373 100.45 29.6324C100.439 29.6276 100.429 29.6204 100.421 29.6114C100.413 29.6025 100.407 29.5919 100.404 29.5805C100.4 29.569 100.4 29.557 100.401 29.5451V26.1599C100.4 26.1475 100.402 26.135 100.407 26.1234C100.411 26.1118 100.418 26.1014 100.427 26.0928C100.436 26.0843 100.447 26.0779 100.459 26.0741C100.471 26.0703 100.483 26.0692 100.496 26.0709H101.234C101.247 26.07 101.26 26.072 101.272 26.0768C101.285 26.0816 101.296 26.089 101.305 26.0986C101.314 26.1082 101.321 26.1196 101.325 26.1322C101.329 26.1447 101.33 26.158 101.328 26.1711V26.6872C101.422 26.4935 101.57 26.3312 101.754 26.22C101.939 26.1087 102.151 26.0533 102.366 26.0604C102.494 26.0604 102.521 26.0604 102.521 26.1716M104.419 25.3339V26.1332H105.087C105.101 26.1323 105.115 26.1345 105.127 26.1395C105.14 26.1446 105.152 26.1525 105.162 26.1625C105.171 26.1726 105.178 26.1847 105.183 26.1979C105.187 26.2111 105.189 26.2251 105.187 26.2389V26.8218C105.189 26.8354 105.187 26.8492 105.183 26.8622C105.179 26.8752 105.171 26.887 105.162 26.8967C105.152 26.9064 105.14 26.9137 105.127 26.9181C105.114 26.9225 105.1 26.9238 105.087 26.922H104.419V28.5033C104.419 28.7085 104.531 28.8253 104.791 28.8253H105.085C105.098 28.8237 105.111 28.8249 105.124 28.829C105.136 28.8331 105.148 28.8399 105.158 28.8489C105.167 28.858 105.175 28.869 105.179 28.8813C105.184 28.8936 105.186 28.9068 105.185 28.9199V29.5785C105.185 29.6452 105.146 29.673 105.085 29.673H104.636C103.836 29.673 103.465 29.2514 103.465 28.6296V26.9053H103.049C103.035 26.9071 103.021 26.9058 103.008 26.9014C102.995 26.897 102.984 26.8897 102.974 26.88C102.964 26.8703 102.957 26.8585 102.952 26.8455C102.948 26.8325 102.947 26.8187 102.949 26.8051V26.2211C102.947 26.2073 102.948 26.1933 102.953 26.1801C102.957 26.1669 102.964 26.1548 102.974 26.1447C102.983 26.1347 102.995 26.1268 103.008 26.1217C103.021 26.1167 103.035 26.1145 103.049 26.1154H103.476V25.3334C103.474 25.3198 103.475 25.306 103.48 25.293C103.484 25.28 103.491 25.2682 103.501 25.2585C103.511 25.2488 103.523 25.2415 103.536 25.2371C103.549 25.2327 103.562 25.2314 103.576 25.2333H104.331C104.344 25.2332 104.356 25.2358 104.368 25.2409C104.379 25.2461 104.39 25.2536 104.398 25.2631C104.406 25.2726 104.413 25.2838 104.417 25.2959C104.42 25.308 104.421 25.3208 104.42 25.3334M108.637 26.8813C108.637 26.937 108.637 26.987 108.559 27.0087L107.966 27.2195C107.899 27.2195 107.866 27.2195 107.838 27.1472C107.793 27.0246 107.709 26.9204 107.598 26.8511C107.487 26.7818 107.357 26.7514 107.227 26.7645C106.921 26.7645 106.744 26.8813 106.744 27.0588C106.744 27.2362 106.871 27.303 107.554 27.486C108.348 27.6968 108.667 28.0422 108.667 28.5984C108.667 29.2865 108.11 29.7109 107.224 29.7109C106.337 29.7109 105.87 29.3944 105.686 28.8509C105.686 28.7731 105.686 28.7347 105.781 28.6958L106.303 28.4404C106.381 28.4015 106.424 28.4404 106.463 28.5183C106.521 28.6592 106.622 28.7779 106.753 28.8568C106.883 28.9357 107.035 28.9707 107.186 28.9566C107.547 28.9566 107.743 28.8398 107.743 28.6457C107.743 28.4516 107.543 28.357 106.905 28.1796C106.122 27.9743 105.793 27.6234 105.793 27.0671C105.793 26.3902 106.349 25.9547 107.18 25.9547C107.482 25.9241 107.786 25.9925 108.046 26.1496C108.307 26.3067 108.509 26.5439 108.623 26.8257M114.617 25.023V29.5507C114.617 29.6063 114.617 29.6452 114.516 29.6452H113.728C113.715 29.646 113.702 29.6441 113.69 29.6397C113.678 29.6353 113.667 29.6284 113.658 29.6196C113.648 29.6107 113.641 29.6 113.636 29.5882C113.631 29.5763 113.628 29.5636 113.628 29.5507V27.7635H112.002V29.5618C112.003 29.5749 112.001 29.5881 111.996 29.6004C111.992 29.6127 111.984 29.6237 111.975 29.6328C111.965 29.6418 111.954 29.6486 111.941 29.6527C111.928 29.6568 111.915 29.658 111.902 29.6563H111.092C111.079 29.6571 111.066 29.6552 111.054 29.6508C111.042 29.6464 111.031 29.6396 111.021 29.6307C111.012 29.6218 111.004 29.6112 110.999 29.5993C110.994 29.5875 110.992 29.5747 110.992 29.5618V25.023C110.992 25.0096 110.994 24.9963 111 24.9841C111.005 24.9718 111.013 24.9608 111.023 24.9519C111.033 24.9429 111.045 24.9362 111.058 24.9322C111.07 24.9281 111.084 24.9269 111.097 24.9284H111.902C111.915 24.9268 111.928 24.928 111.941 24.9321C111.954 24.9362 111.965 24.943 111.975 24.952C111.984 24.9611 111.992 24.9721 111.996 24.9844C112.001 24.9967 112.003 25.0099 112.002 25.023V26.8207H113.628V25.023C113.628 25.0101 113.631 24.9973 113.636 24.9855C113.641 24.9736 113.648 24.963 113.658 24.9541C113.667 24.9452 113.678 24.9384 113.69 24.934C113.702 24.9296 113.715 24.9277 113.728 24.9284H114.533C114.605 24.9284 114.633 24.9674 114.633 25.023M116.331 27.4148V27.5366H117.575V27.4148C117.581 27.329 117.57 27.2428 117.542 27.1615C117.514 27.0802 117.469 27.0056 117.411 26.9424C117.353 26.8792 117.282 26.8288 117.203 26.7943C117.124 26.7598 117.039 26.742 116.953 26.742C116.867 26.742 116.782 26.7598 116.703 26.7943C116.624 26.8288 116.553 26.8792 116.495 26.9424C116.437 27.0056 116.392 27.0802 116.364 27.1615C116.336 27.2428 116.325 27.329 116.331 27.4148ZM116.331 28.1696V28.3047C116.317 28.3928 116.324 28.4831 116.351 28.5679C116.379 28.6528 116.427 28.7297 116.49 28.7923C116.554 28.8549 116.632 28.9012 116.717 28.9274C116.802 28.9536 116.893 28.9588 116.98 28.9427C117.12 28.9642 117.263 28.9388 117.386 28.8706C117.51 28.8023 117.607 28.6951 117.663 28.5656C117.724 28.4655 117.752 28.4543 117.852 28.4988L118.362 28.7597C118.468 28.8098 118.473 28.8598 118.429 28.9594C118.289 29.2169 118.077 29.4279 117.818 29.5662C117.56 29.7046 117.267 29.7643 116.975 29.7381C116.772 29.765 116.567 29.7473 116.372 29.6861C116.177 29.6249 115.998 29.5217 115.847 29.3839C115.696 29.246 115.577 29.0768 115.499 28.8882C115.421 28.6995 115.385 28.496 115.394 28.2919V27.4587C115.384 27.2559 115.419 27.0533 115.496 26.8654C115.572 26.6774 115.69 26.5086 115.839 26.3708C115.988 26.2329 116.165 26.1294 116.359 26.0675C116.552 26.0056 116.757 25.9869 116.958 26.0125C117.154 25.993 117.352 26.0161 117.538 26.0801C117.724 26.1442 117.894 26.2478 118.037 26.3838C118.179 26.5199 118.29 26.685 118.363 26.8681C118.435 27.0511 118.467 27.2477 118.457 27.4442V28.0005C118.457 28.095 118.423 28.1612 118.285 28.1612L116.331 28.1696ZM121.27 26.1332V26.8268C121.27 26.9103 121.242 26.9381 121.153 26.9381H121.053C120.85 26.9124 120.645 26.9613 120.476 27.0756C120.306 27.1899 120.184 27.3618 120.132 27.5594V29.5451C120.133 29.5568 120.131 29.5685 120.127 29.5796C120.124 29.5907 120.118 29.6009 120.11 29.6097C120.102 29.6185 120.093 29.6257 120.082 29.6308C120.072 29.6359 120.06 29.639 120.049 29.6397H119.233C119.221 29.6398 119.209 29.6373 119.198 29.6324C119.187 29.6276 119.177 29.6204 119.169 29.6114C119.161 29.6025 119.156 29.5919 119.152 29.5805C119.149 29.569 119.148 29.557 119.149 29.5451V26.1599C119.148 26.1475 119.15 26.135 119.155 26.1234C119.159 26.1118 119.166 26.1014 119.175 26.0928C119.184 26.0843 119.195 26.0779 119.207 26.0741C119.219 26.0703 119.231 26.0692 119.244 26.0709H119.982C120.06 26.0709 120.076 26.121 120.076 26.1711V26.6872C120.17 26.4935 120.318 26.3312 120.502 26.22C120.687 26.1087 120.899 26.0533 121.114 26.0604C121.247 26.0604 121.27 26.0604 121.27 26.1716M122.679 27.4148V27.5366H123.923V27.4148C123.93 27.329 123.919 27.2428 123.891 27.1615C123.863 27.0802 123.818 27.0056 123.76 26.9424C123.701 26.8792 123.63 26.8288 123.552 26.7943C123.473 26.7598 123.388 26.742 123.302 26.742C123.216 26.742 123.131 26.7598 123.052 26.7943C122.973 26.8288 122.902 26.8792 122.844 26.9424C122.785 27.0056 122.741 27.0802 122.712 27.1615C122.684 27.2428 122.672 27.329 122.679 27.4148ZM122.68 28.1696V28.3047C122.666 28.3928 122.672 28.4831 122.7 28.5679C122.728 28.6528 122.775 28.7297 122.839 28.7923C122.903 28.8549 122.98 28.9012 123.066 28.9274C123.151 28.9536 123.241 28.9588 123.329 28.9427C123.469 28.9645 123.613 28.9393 123.737 28.8711C123.862 28.8029 123.96 28.6955 124.017 28.5656C124.073 28.4655 124.101 28.4543 124.2 28.4988L124.711 28.7597C124.817 28.8098 124.822 28.8598 124.778 28.9594C124.638 29.2169 124.425 29.4279 124.167 29.5662C123.909 29.7046 123.616 29.7643 123.324 29.7381C123.122 29.7633 122.917 29.7442 122.724 29.6822C122.53 29.6202 122.353 29.5167 122.203 29.3791C122.054 29.2414 121.936 29.0729 121.858 28.8851C121.781 28.6974 121.745 28.4949 121.753 28.2919V27.4587C121.744 27.2559 121.778 27.0533 121.855 26.8654C121.932 26.6774 122.049 26.5086 122.199 26.3708C122.348 26.2329 122.525 26.1294 122.719 26.0675C122.912 26.0056 123.117 25.9869 123.318 26.0125C123.514 25.993 123.712 26.0161 123.898 26.0801C124.084 26.1442 124.254 26.2478 124.397 26.3838C124.539 26.5199 124.65 26.685 124.723 26.8681C124.795 27.0511 124.827 27.2477 124.817 27.4442V28.0005C124.817 28.095 124.783 28.1612 124.645 28.1612L122.68 28.1696Z" fill="white"/>
</g>
</g>
</g>
<defs>
<clipPath id="clip0_1_15">
<rect width="125" height="36" fill="white" transform="translate(0.0141602)"/>
</clipPath>
</defs>
</svg>
