<svg width="177" height="63" viewBox="0 0 177 63" fill="none" xmlns="http://www.w3.org/2000/svg">
<g clip-path="url(#clip0_1_83)">
<path opacity="0.95" d="M116.576 44.6533C111.568 44.6533 107.509 48.7611 107.509 53.8285C107.509 58.8964 111.568 63.0037 116.576 63.0037C121.582 63.0037 125.641 58.8964 125.641 53.8285C125.641 48.7611 121.582 44.6533 116.576 44.6533Z" fill="#3AAA35"/>
<path d="M135.309 44.6533C130.302 44.6533 126.242 48.7611 126.242 53.8285C126.242 58.8964 130.302 63.0039 135.309 63.0039C140.316 63.0039 144.376 58.8964 144.376 53.8285C144.376 48.7611 140.316 44.6533 135.309 44.6533Z" fill="#3AAA35"/>
<path opacity="0.55" d="M41.6377 44.6533C36.6316 44.6533 32.5725 48.7611 32.5725 53.8285C32.5725 58.8964 36.6316 63.0037 41.6377 63.0037C46.6452 63.0037 50.7044 58.8964 50.7044 53.8285C50.7044 48.7611 46.6452 44.6533 41.6377 44.6533Z" fill="#3AAA35"/>
<path opacity="0.65" d="M60.3723 44.6533C55.3649 44.6533 51.3059 48.7606 51.3059 53.8277C51.3059 58.8959 55.3649 63.0037 60.3723 63.0037C65.3795 63.0037 69.4393 58.8959 69.4393 53.8277C69.4393 48.7606 65.3795 44.6533 60.3723 44.6533Z" fill="#3AAA35"/>
<path opacity="0.85" d="M97.8415 44.6533C92.834 44.6533 88.7742 48.7611 88.7742 53.828C88.7742 58.8959 92.834 63.0037 97.8415 63.0037C102.849 63.0037 106.908 58.8959 106.908 53.828C106.908 48.7611 102.849 44.6533 97.8415 44.6533Z" fill="#3AAA35"/>
<path opacity="0.75" d="M79.0802 44.6541C74.0723 44.6541 70.0132 48.7613 70.0132 53.8287C70.0132 58.8971 74.0723 63.0039 79.0802 63.0039C84.0864 63.0039 88.146 58.8971 88.146 53.8287C88.146 48.7613 84.0864 44.6541 79.0802 44.6541Z" fill="#3AAA35"/>
<path d="M144.137 27.267L128.388 27.252L128.39 21.1428L136.814 21.1523H136.815C137 21.1523 137.178 21.0788 137.309 20.9475C137.44 20.8165 137.514 20.6383 137.514 20.4522L137.518 13.8679C137.518 13.4814 137.206 13.1678 136.82 13.1671L128.401 13.1569L128.404 8.01111L143.208 8.02205H143.208C143.594 8.02205 143.907 7.7091 143.908 7.32261L143.917 0.739686C143.917 0.553626 143.843 0.37543 143.712 0.244096C143.581 0.112416 143.403 0.0385383 143.218 0.0381977L119.675 0.015625H119.674C119.489 0.015625 119.312 0.0891623 119.18 0.220496C119.049 0.35149 118.975 0.529686 118.975 0.715406L118.947 34.534C118.947 34.9208 119.26 35.2348 119.646 35.2351L144.132 35.2574H144.132C144.318 35.2574 144.495 35.1838 144.626 35.0525C144.757 34.9212 144.831 34.7433 144.831 34.5573L144.836 27.9678C144.836 27.5814 144.523 27.2674 144.137 27.267Z" fill="white"/>
<path d="M62.174 0.0157289L54.2496 0.0119629C54.0642 0.0119629 53.886 0.0858409 53.7549 0.216834C53.6238 0.348173 53.5501 0.526365 53.5501 0.712084L53.5457 18.3571L45.8468 0.439154C45.7366 0.182296 45.484 0.0157289 45.2047 0.0157289H35.0285C34.6424 0.0157289 34.3293 0.329366 34.3293 0.716191L34.3276 34.5533C34.3276 34.9401 34.6403 35.2537 35.0264 35.2537L43.0612 35.2565C43.2465 35.2565 43.4247 35.1826 43.5558 35.0512C43.6869 34.9199 43.7607 34.7417 43.7607 34.556L43.7627 14.5531L52.6301 34.8324C52.7414 35.0868 52.9926 35.2513 53.2702 35.2517L62.173 35.2575C62.3584 35.2575 62.5366 35.1836 62.6677 35.0526C62.7988 34.9213 62.8725 34.7427 62.8725 34.557L62.8729 0.716196C62.8729 0.329361 62.5602 0.0160696 62.174 0.0157289Z" fill="white"/>
<path d="M27.4646 0.0148142L18.5363 0.0119629C18.4477 0.0119629 18.361 0.0479429 18.2984 0.110467C18.2349 0.17406 18.2 0.258312 18.2 0.347734V22.0728C18.2 24.4553 16.2654 26.3935 13.8875 26.3935C11.5095 26.3935 9.5748 24.4553 9.5748 22.0728V4.24961L9.57436 2.97832L9.5748 0.350404C9.5748 0.165328 9.42416 0.0148096 9.23904 0.0148096L0.310796 0.0119629C0.220875 0.0119629 0.136292 0.0468742 0.0728192 0.110467C0.00934602 0.17406 -0.0256348 0.258316 -0.0256348 0.347734V22.0728C-0.0256348 29.7588 6.21577 36.012 13.8875 36.012C21.5591 36.012 27.8004 29.7588 27.8004 22.0728V2.97778L27.7999 2.97832L27.8004 0.350404C27.8004 0.165333 27.6498 0.0148142 27.4646 0.0148142Z" fill="white"/>
<path d="M78.8486 0.72782C78.849 0.340991 78.5363 0.0273582 78.1502 0.0270129L70.1045 0.0119629C70.1042 0.0119629 70.1042 0.0119629 70.1038 0.0119629C69.7181 0.0119629 69.405 0.325255 69.4047 0.711744L69.3999 34.5187C69.3999 34.7048 69.4733 34.883 69.6044 35.0143C69.7355 35.146 69.913 35.2199 70.0987 35.2199L78.1457 35.2322C78.3311 35.2322 78.509 35.1586 78.64 35.0273C78.7715 34.896 78.8452 34.7178 78.8452 34.532L78.8486 0.72782Z" fill="white"/>
<path d="M109.91 16.1754C111.731 14.4702 112.875 12.0496 112.875 9.35574C112.875 4.1953 108.7 0.0119629 103.549 0.0119629C103.48 0.0119629 103.414 0.0207782 103.346 0.0222576L98.9744 0.0119629V0.0206196L86.0919 0.0157056H86.0913C85.7054 0.0157056 85.3925 0.32903 85.3922 0.715827L85.376 34.5282C85.376 34.714 85.4492 34.8922 85.5803 35.0238C85.7114 35.1552 85.8895 35.2291 86.0751 35.2291L98.9744 35.2317L101.279 35.2322C101.283 35.2322 101.286 35.2322 101.289 35.2322H103.38C109.255 35.2322 114.017 30.4609 114.017 24.5753C114.017 21.1588 112.406 18.1256 109.91 16.1754ZM94.6143 7.06232H101.657C103.042 7.06232 104.166 8.1877 104.166 9.57593C104.166 10.9642 103.042 12.0896 101.657 12.0896H94.6143V7.06232ZM101.555 26.8344C101.55 26.8344 101.545 26.8337 101.54 26.8337H94.6143V19.484H101.555C103.581 19.484 105.223 21.1295 105.223 23.1592C105.223 25.189 103.581 26.8344 101.555 26.8344Z" fill="white"/>
<path d="M176.77 0.270775C176.639 0.139436 176.462 0.0652177 176.276 0.064877L149.879 0.015625H149.878C149.492 0.015625 149.179 0.328576 149.178 0.71472L149.167 7.23745C149.167 7.62462 149.479 7.9386 149.865 7.93928L158.151 7.95638L158.107 34.5347C158.107 34.7204 158.18 34.8986 158.311 35.0303C158.442 35.162 158.62 35.2358 158.805 35.2362L167.155 35.2471H167.156C167.542 35.2471 167.854 34.9342 167.855 34.5477L167.897 7.97007L176.263 7.98649H176.264C176.649 7.98649 176.962 7.67354 176.963 7.28739L176.974 0.766716C176.975 0.580646 176.901 0.40245 176.77 0.270775Z" fill="white"/>
</g>
<defs>
<clipPath id="clip0_1_83">
<rect width="177" height="63" fill="white"/>
</clipPath>
</defs>
</svg>
