<svg width="50" height="50" viewBox="0 0 50 50" fill="none" xmlns="http://www.w3.org/2000/svg">
<path d="M22.9167 30.2083C22.9167 33.0833 27.5812 35.4167 33.3333 35.4167C39.0854 35.4167 43.75 33.0833 43.75 30.2083M6.25 19.7917C6.25 22.6667 10.9146 25 16.6667 25C19.0125 25 21.1771 24.6125 22.9167 23.9583M6.25 27.0833C6.25 29.9583 10.9146 32.2917 16.6667 32.2917C19.0125 32.2917 21.175 31.9042 22.9167 31.25M33.3333 27.0833C27.5812 27.0833 22.9167 24.75 22.9167 21.875C22.9167 19 27.5812 16.6667 33.3333 16.6667C39.0854 16.6667 43.75 19 43.75 21.875C43.75 24.75 39.0854 27.0833 33.3333 27.0833Z" stroke="#1E1E1E" stroke-width="3.125" stroke-linecap="round" stroke-linejoin="round"/>
<path d="M6.25 11.4583V34.375C6.25 37.25 10.9146 39.5833 16.6667 39.5833C19.0125 39.5833 21.175 39.1958 22.9167 38.5417M22.9167 38.5417V21.875M22.9167 38.5417C22.9167 41.4167 27.5812 43.75 33.3333 43.75C39.0854 43.75 43.75 41.4167 43.75 38.5417V21.875M27.0833 17.7083V11.4583" stroke="#1E1E1E" stroke-width="3.125" stroke-linecap="round" stroke-linejoin="round"/>
<path d="M16.6667 16.6667C10.9146 16.6667 6.25 14.3333 6.25 11.4583C6.25 8.58333 10.9146 6.25 16.6667 6.25C22.4187 6.25 27.0833 8.58333 27.0833 11.4583C27.0833 14.3333 22.4187 16.6667 16.6667 16.6667Z" stroke="#1E1E1E" stroke-width="3.125" stroke-linecap="round" stroke-linejoin="round"/>
</svg>
