<svg width="50" height="50" viewBox="0 0 50 50" fill="none" xmlns="http://www.w3.org/2000/svg">
<path d="M29.1665 37.5C32.6387 37.5 35.5901 36.2847 38.0207 33.8542C40.4512 31.4236 41.6665 28.4722 41.6665 25C41.6665 21.4931 40.3901 18.5333 37.8373 16.1208C35.2846 13.7083 32.2207 12.5014 28.6457 12.5C26.979 12.5 25.3644 12.691 23.8019 13.0729C22.2394 13.4549 20.729 14.0278 19.2707 14.7917L24.479 16.875C25.9026 17.4653 27.0401 18.3771 27.8915 19.6104C28.7429 20.8437 29.1679 22.2236 29.1665 23.75C29.1665 25.8333 28.4464 27.6042 27.0061 29.0625C25.5658 30.5208 23.8207 31.25 21.7707 31.25H8.43734C8.36789 32.0833 8.33317 33.0299 8.33317 34.0896V37.5H29.1665ZM9.1665 27.0833H21.6665C22.604 27.0833 23.3943 26.7625 24.0373 26.1208C24.6804 25.4792 25.0012 24.6889 24.9998 23.75C24.9998 23.0903 24.8179 22.4917 24.454 21.9542C24.0901 21.4167 23.5776 21.0083 22.9165 20.7292L15.2082 17.6042C13.7498 18.8889 12.5089 20.3472 11.4853 21.9792C10.4616 23.6111 9.68873 25.3125 9.1665 27.0833ZM29.1665 41.6667H8.33317C7.18734 41.6667 6.20678 41.259 5.3915 40.4437C4.57623 39.6285 4.16789 38.6472 4.1665 37.5V32.8125C4.1665 29.4097 4.80886 26.2243 6.09359 23.2562C7.37831 20.2882 9.12345 17.7007 11.329 15.4937C13.5346 13.2868 16.1297 11.5424 19.1144 10.2604C22.0991 8.97847 25.2762 8.33611 28.6457 8.33333C31.0068 8.33333 33.229 8.76736 35.3123 9.63541C37.3957 10.5035 39.2186 11.693 40.7811 13.2042C42.3436 14.7153 43.5762 16.4771 44.479 18.4896C45.3818 20.5021 45.8332 22.6722 45.8332 25C45.8332 27.2917 45.3991 29.4535 44.5311 31.4854C43.663 33.5174 42.4735 35.2882 40.9623 36.7979C39.4512 38.3076 37.6804 39.4965 35.6498 40.3646C33.6193 41.2326 31.4582 41.6667 29.1665 41.6667Z" fill="#1E1E1E"/>
</svg>
