<svg width="50" height="50" viewBox="0 0 50 50" fill="none" xmlns="http://www.w3.org/2000/svg">
<path fill-rule="evenodd" clip-rule="evenodd" d="M32.2772 14.4479C32.5893 14.7204 32.7804 15.1056 32.8085 15.5189C32.8367 15.9323 32.6995 16.3399 32.4272 16.6521L16.0584 35.4021C15.9118 35.5701 15.7308 35.7047 15.5278 35.797C15.3248 35.8893 15.1043 35.937 14.8813 35.937C14.6583 35.937 14.4379 35.8893 14.2349 35.797C14.0318 35.7047 13.8509 35.5701 13.7042 35.4021L7.15633 27.9021C6.89368 27.5886 6.7644 27.1846 6.79625 26.7769C6.82811 26.3692 7.01856 25.9902 7.32672 25.7213C7.63488 25.4524 8.03617 25.315 8.44447 25.3387C8.85276 25.3624 9.23549 25.5452 9.5105 25.8479L14.8813 32L30.073 14.5979C30.3454 14.2858 30.7307 14.0947 31.144 14.0666C31.5574 14.0384 31.9649 14.1756 32.2772 14.4479ZM42.7459 14.625C43.3709 15.2188 43.3938 16.2083 42.798 16.8333L24.9417 35.5833C24.7858 35.7471 24.5961 35.8751 24.3859 35.9584C24.1756 36.0418 23.9498 36.0785 23.7239 36.066C23.4981 36.0535 23.2777 35.9922 23.0779 35.8862C22.8781 35.7802 22.7037 35.6321 22.5667 35.4521L21.673 34.2792C21.4389 33.974 21.3256 33.5931 21.3548 33.2096C21.3839 32.826 21.5536 32.4667 21.8312 32.2005C22.1088 31.9342 22.4749 31.7797 22.8593 31.7666C23.2437 31.7534 23.6195 31.8825 23.9147 32.1292L40.5355 14.6771C40.8212 14.3772 41.2143 14.203 41.6285 14.1929C42.0426 14.1827 42.4437 14.3374 42.7438 14.6229" fill="#1E1E1E"/>
</svg>
