<svg width="51" height="50" viewBox="0 0 51 50" fill="none" xmlns="http://www.w3.org/2000/svg">
<path d="M38.5188 27.9375C36.8813 31.2562 34.6625 34.5625 32.3938 37.5312C30.2392 40.3282 27.9381 43.009 25.5 45.5625C23.0619 43.009 20.7608 40.3282 18.6063 37.5312C16.3375 34.5625 14.1188 31.2562 12.4813 27.9375C10.825 24.5844 9.875 21.4438 9.875 18.75C9.875 14.606 11.5212 10.6317 14.4515 7.70146C17.3817 4.7712 21.356 3.125 25.5 3.125C29.644 3.125 33.6183 4.7712 36.5485 7.70146C39.4788 10.6317 41.125 14.606 41.125 18.75C41.125 21.4438 40.1719 24.5844 38.5188 27.9375ZM25.5 50C25.5 50 44.25 32.2313 44.25 18.75C44.25 13.7772 42.2746 9.00805 38.7583 5.49175C35.2419 1.97544 30.4728 0 25.5 0C20.5272 0 15.7581 1.97544 12.2417 5.49175C8.72544 9.00805 6.75 13.7772 6.75 18.75C6.75 32.2313 25.5 50 25.5 50Z" fill="#A7D129"/>
<path d="M25.5 25C23.8424 25 22.2527 24.3415 21.0806 23.1694C19.9085 21.9973 19.25 20.4076 19.25 18.75C19.25 17.0924 19.9085 15.5027 21.0806 14.3306C22.2527 13.1585 23.8424 12.5 25.5 12.5C27.1576 12.5 28.7473 13.1585 29.9194 14.3306C31.0915 15.5027 31.75 17.0924 31.75 18.75C31.75 20.4076 31.0915 21.9973 29.9194 23.1694C28.7473 24.3415 27.1576 25 25.5 25ZM25.5 28.125C27.9864 28.125 30.371 27.1373 32.1291 25.3791C33.8873 23.621 34.875 21.2364 34.875 18.75C34.875 16.2636 33.8873 13.879 32.1291 12.1209C30.371 10.3627 27.9864 9.375 25.5 9.375C23.0136 9.375 20.629 10.3627 18.8709 12.1209C17.1127 13.879 16.125 16.2636 16.125 18.75C16.125 21.2364 17.1127 23.621 18.8709 25.3791C20.629 27.1373 23.0136 28.125 25.5 28.125Z" fill="#A7D129"/>
</svg>
