<svg width="51" height="50" viewBox="0 0 51 50" fill="none" xmlns="http://www.w3.org/2000/svg">
<g clip-path="url(#clip0_67_40)">
<path d="M44.9444 8.33325H6.05555C5.31884 8.33325 4.6123 8.62591 4.09136 9.14684C3.57043 9.66778 3.27777 10.3743 3.27777 11.111V38.8888C3.27777 39.6255 3.57043 40.3321 4.09136 40.853C4.6123 41.3739 5.31884 41.6666 6.05555 41.6666H26.8889L27.6805 40.6944L28.9722 39.111L28.8472 38.8888H6.05555V11.111H44.9444V22.9999C45.9997 23.6828 46.9378 24.5317 47.7222 25.5138V11.111C47.7222 10.3743 47.4296 9.66778 46.9086 9.14684C46.3877 8.62591 45.6811 8.33325 44.9444 8.33325Z" fill="#A7D129"/>
<path d="M10.2222 16.6667H33.8333V18.889H10.2222V16.6667Z" fill="#A7D129"/>
<path d="M10.2222 22.2222H25.5V24.4444H10.2222V22.2222Z" fill="#A7D129"/>
<path d="M10.2222 31.9443H24.1111V34.1666H10.2222V31.9443Z" fill="#A7D129"/>
<path d="M38.6389 23.9305C36.8616 23.9163 35.1213 24.4387 33.6456 25.4293C32.1699 26.4199 31.0273 27.8326 30.3672 29.4829C29.7071 31.1331 29.5602 32.9441 29.9456 34.6792C30.3311 36.4143 31.231 37.9927 32.5278 39.2082L29.8333 42.4999L31.0833 47.5138L36.1667 41.3193C37.7758 41.7951 39.4881 41.7951 41.0972 41.3193L46.1806 47.5138L47.4306 42.4999L44.7361 39.2082C46.0329 37.9927 46.9328 36.4143 47.3182 34.6792C47.7037 32.9441 47.5568 31.1331 46.8967 29.4829C46.2366 27.8326 45.094 26.4199 43.6183 25.4293C42.1426 24.4387 40.4023 23.9163 38.625 23.9305H38.6389ZM38.6389 38.7638C37.4586 38.7474 36.3096 38.3824 35.3362 37.7147C34.3628 37.047 33.6085 36.1065 33.1682 35.0113C32.7279 33.9161 32.6212 32.7152 32.8615 31.5596C33.1018 30.4039 33.6784 29.3451 34.5188 28.5163C35.3592 27.6874 36.4258 27.1255 37.5847 26.9012C38.7436 26.6769 39.9429 26.8002 41.0318 27.2556C42.1208 27.7111 43.0508 28.4783 43.705 29.4608C44.3591 30.4433 44.7082 31.5973 44.7083 32.7777C44.6937 34.3752 44.0468 35.9019 42.9094 37.0237C41.7719 38.1456 40.2365 38.7712 38.6389 38.7638Z" fill="#A7D129"/>
</g>
<defs>
<clipPath id="clip0_67_40">
<rect width="50" height="50" fill="white" transform="translate(0.5)"/>
</clipPath>
</defs>
</svg>
