<svg width="51" height="50" viewBox="0 0 51 50" fill="none" xmlns="http://www.w3.org/2000/svg">
<path d="M25.5 3.125L6.75 9.375V28.125C6.75 38.4814 15.1436 46.875 25.5 46.875C35.8564 46.875 44.25 38.4814 44.25 28.125V9.375L25.5 3.125ZM40.7344 28.125C40.7344 36.5381 33.9131 43.3594 25.5 43.3594C17.0869 43.3594 10.2656 36.5381 10.2656 28.125V12.0117L25.5 6.64062L40.7344 12.0117V28.125Z" fill="#A7D129"/>
<path d="M18.9765 23.1982C18.8136 23.0346 18.62 22.9047 18.4067 22.8161C18.1935 22.7275 17.9648 22.6819 17.7339 22.6819C17.5029 22.6819 17.2743 22.7275 17.061 22.8161C16.8478 22.9047 16.6541 23.0346 16.4912 23.1982C16.3275 23.3612 16.1976 23.5548 16.109 23.7681C16.0204 23.9813 15.9748 24.21 15.9748 24.4409C15.9748 24.6719 16.0204 24.9005 16.109 25.1138C16.1976 25.327 16.3275 25.5207 16.4912 25.6836L22.8095 32.002L22.9121 32.1045C23.0662 32.2589 23.2492 32.3814 23.4507 32.465C23.6522 32.5485 23.8683 32.5916 24.0864 32.5916C24.3045 32.5916 24.5206 32.5485 24.7221 32.465C24.9236 32.3814 25.1066 32.2589 25.2607 32.1045L36.1738 21.1914C36.3282 21.0373 36.4507 20.8543 36.5343 20.6528C36.6178 20.4512 36.6609 20.2352 36.6609 20.0171C36.6609 19.7989 36.6178 19.5829 36.5343 19.3814C36.4507 19.1799 36.3282 18.9969 36.1738 18.8428L36.0371 18.7061C35.883 18.5517 35.6999 18.4292 35.4984 18.3456C35.2969 18.262 35.0809 18.219 34.8628 18.219C34.6446 18.219 34.4286 18.262 34.2271 18.3456C34.0256 18.4292 33.8426 18.5517 33.6885 18.7061L24.084 28.3057L18.9765 23.1982Z" fill="#A7D129"/>
</svg>
