<svg width="70" height="70" viewBox="0 0 70 70" fill="none" xmlns="http://www.w3.org/2000/svg">
<g clip-path="url(#clip0_2670_4)">
<path d="M62.2222 11.6667H7.7778C6.74641 11.6667 5.75725 12.0764 5.02794 12.8057C4.29864 13.535 3.88892 14.5242 3.88892 15.5556V54.4445C3.88892 55.4759 4.29864 56.465 5.02794 57.1943C5.75725 57.9236 6.74641 58.3334 7.7778 58.3334H36.9445L38.0528 56.9722L39.8611 54.7556L39.6861 54.4445H7.7778V15.5556H62.2222V32.2C63.6997 33.156 65.0129 34.3445 66.1111 35.7195V15.5556C66.1111 14.5242 65.7014 13.535 64.9721 12.8057C64.2428 12.0764 63.2536 11.6667 62.2222 11.6667Z" fill="#0E1A2B"/>
<path d="M13.6111 23.3333H46.6666V26.4444H13.6111V23.3333Z" fill="#0E1A2B"/>
<path d="M13.6111 31.1111H35V34.2222H13.6111V31.1111Z" fill="#0E1A2B"/>
<path d="M13.6111 44.7222H33.0555V47.8333H13.6111V44.7222Z" fill="#0E1A2B"/>
<path d="M53.3944 33.5028C50.9062 33.483 48.4699 34.2143 46.4038 35.6012C44.3378 36.988 42.7382 38.9658 41.8141 41.2762C40.8899 43.5865 40.6842 46.1219 41.2239 48.551C41.7635 50.9801 43.0234 53.1899 44.8389 54.8917L41.0667 59.5L42.8167 66.5194L49.9333 57.8472C52.186 58.5133 54.5834 58.5133 56.8361 57.8472L63.9528 66.5194L65.7028 59.5L61.9305 54.8917C63.746 53.1899 65.0059 50.9801 65.5455 48.551C66.0852 46.1219 65.8795 43.5865 64.9553 41.2762C64.0312 38.9658 62.4316 36.988 60.3656 35.6012C58.2996 34.2143 55.8632 33.483 53.375 33.5028H53.3944ZM53.3944 54.2694C51.7421 54.2464 50.1334 53.7354 48.7707 52.8007C47.4079 51.866 46.3519 50.5492 45.7355 49.016C45.119 47.4827 44.9696 45.8015 45.3061 44.1836C45.6425 42.5657 46.4497 41.0833 47.6263 39.9229C48.8028 38.7625 50.2962 37.9759 51.9186 37.6618C53.541 37.3478 55.22 37.5205 56.7446 38.158C58.2691 38.7956 59.5712 39.8697 60.487 41.2452C61.4028 42.6208 61.8915 44.2364 61.8917 45.8889C61.8711 48.1254 60.9656 50.2628 59.3731 51.8333C57.7807 53.4039 55.631 54.2798 53.3944 54.2694Z" fill="#0E1A2B"/>
</g>
<defs>
<clipPath id="clip0_2670_4">
<rect width="70" height="70" fill="white"/>
</clipPath>
</defs>
</svg>
