<svg width="70" height="70" viewBox="0 0 70 70" fill="none" xmlns="http://www.w3.org/2000/svg">
<path d="M47.9791 31.9375L38.0625 24.5C37.179 23.8374 36.1044 23.4792 35 23.4792C33.8956 23.4792 32.821 23.8374 31.9375 24.5L22.0208 31.9375C21.791 32.1099 21.5974 32.3258 21.451 32.573C21.3047 32.8202 21.2084 33.0938 21.1678 33.3782C21.1272 33.6625 21.143 33.9521 21.2143 34.2304C21.2855 34.5087 21.411 34.7702 21.5833 35C21.7557 35.2298 21.9716 35.4234 22.2188 35.5698C22.466 35.7162 22.7396 35.8124 23.024 35.853C23.3083 35.8937 23.5979 35.8779 23.8762 35.8066C24.1545 35.7353 24.416 35.6099 24.6458 35.4375L34.5625 28C34.6887 27.9054 34.8422 27.8542 35 27.8542C35.1577 27.8542 35.3113 27.9054 35.4375 28L45.3541 35.4375C45.584 35.6099 45.8455 35.7353 46.1238 35.8066C46.402 35.8779 46.6916 35.8937 46.976 35.853C47.2604 35.8124 47.534 35.7162 47.7812 35.5698C48.0283 35.4234 48.2443 35.2298 48.4166 35C48.589 34.7702 48.7144 34.5087 48.7857 34.2304C48.857 33.9521 48.8728 33.6625 48.8322 33.3782C48.7915 33.0938 48.6953 32.8202 48.5489 32.573C48.4026 32.3258 48.209 32.1099 47.9791 31.9375Z" fill="#0E1A2B"/>
<path d="M42.1459 39.2292L36.3125 34.8542C35.9339 34.5702 35.4733 34.4167 35 34.4167C34.5267 34.4167 34.0662 34.5702 33.6875 34.8542L27.8542 39.2292C27.3901 39.5773 27.0832 40.0955 27.0012 40.6698C26.9191 41.2442 27.0686 41.8276 27.4167 42.2917C27.7648 42.7558 28.283 43.0627 28.8573 43.1447C29.4317 43.2267 30.0151 43.0773 30.4792 42.7292L35 39.34L39.5209 42.7292C39.985 43.0773 40.5684 43.2267 41.1427 43.1447C41.7171 43.0627 42.2353 42.7558 42.5834 42.2917C42.9315 41.8276 43.0809 41.2442 42.9989 40.6698C42.9168 40.0955 42.61 39.5773 42.1459 39.2292Z" fill="#0E1A2B"/>
<path fill-rule="evenodd" clip-rule="evenodd" d="M35 3.64581C32.2671 3.64581 29.6537 4.54123 25.4421 5.98206L23.3217 6.71123C19.0021 8.18706 15.6654 9.3304 13.2796 10.2987C12.0779 10.7858 11.0425 11.2612 10.2112 11.7425C9.40917 12.2091 8.60708 12.7896 8.06167 13.5683C7.52208 14.3354 7.24208 15.2804 7.06708 16.1933C6.88333 17.1383 6.77542 18.2729 6.7025 19.5766C6.5625 22.1608 6.5625 25.7075 6.5625 30.3041V34.9737C6.5625 52.7683 20.0025 61.2996 27.9942 64.7937L28.0729 64.8258C29.0646 65.2604 29.9979 65.6658 31.0683 65.94C32.1971 66.2316 33.3988 66.3541 35 66.3541C36.6042 66.3541 37.8 66.2316 38.9317 65.94C40.0021 65.6658 40.9354 65.2604 41.9242 64.8258L42.0058 64.7937C49.9975 61.2996 63.4375 52.7683 63.4375 34.9737V30.3041C63.4375 25.7075 63.4375 22.1608 63.2975 19.5737C63.2493 18.4393 63.1275 17.3091 62.9329 16.1904C62.7579 15.2804 62.4779 14.3354 61.9413 13.5654C61.3929 12.7896 60.5908 12.2091 59.7888 11.7425C58.7982 11.1956 57.7732 10.7133 56.7204 10.2987C54.3346 9.3304 50.9979 8.18706 46.6783 6.71123L44.5579 5.98206C40.3463 4.54123 37.7329 3.64581 35 3.64581ZM26.4833 10.2491C31.1938 8.63915 33.0808 8.02081 35 8.02081C36.9192 8.02081 38.8063 8.63915 43.5167 10.2491L45.185 10.8208C49.5979 12.3316 52.815 13.4341 55.0725 14.35C56.2013 14.8108 57.0179 15.1958 57.5925 15.5283C57.8725 15.6916 58.0747 15.8268 58.1992 15.9337C58.31 16.0212 58.3538 16.0737 58.3596 16.0796C58.3979 16.1482 58.4292 16.2205 58.4529 16.2954C58.5113 16.4548 58.5725 16.696 58.6367 17.0187C58.7979 17.9423 58.8954 18.8759 58.9283 19.8129C59.0625 22.2658 59.0625 25.69 59.0625 30.3829V34.9737C59.0625 50.0704 47.775 57.4991 40.2529 60.7833C39.1708 61.2558 38.5438 61.5241 37.8467 61.7021C37.1817 61.8741 36.3708 61.9791 35 61.9791C33.6292 61.9791 32.8183 61.8741 32.1533 61.7021C31.4533 61.5271 30.8292 61.2558 29.7471 60.7833C22.2221 57.4991 10.9375 50.0675 10.9375 34.9737V30.3829C10.9375 25.69 10.9375 22.2658 11.0717 19.8129C11.1046 18.8759 11.2021 17.9423 11.3633 17.0187C11.4256 16.696 11.4868 16.4548 11.5471 16.2954C11.5996 16.1496 11.6346 16.0912 11.6404 16.0796C11.6892 16.0261 11.743 15.9773 11.8008 15.9337C11.9253 15.8268 12.1275 15.6907 12.4075 15.5254C12.9821 15.1929 13.7988 14.8108 14.9275 14.3529C17.185 13.4341 20.4021 12.3316 24.815 10.8237L26.4833 10.2491Z" fill="#0E1A2B"/>
</svg>
