<svg width="70" height="70" viewBox="0 0 70 70" fill="none" xmlns="http://www.w3.org/2000/svg">
<path d="M56.945 40.7225C58.5664 38.7001 59.7706 36.3761 60.4878 33.8851C61.205 31.3942 61.4209 28.7857 61.1231 26.2107C59.4416 26.9587 57.6216 27.3448 55.7812 27.3438C53.0546 27.3443 50.3954 26.4957 48.1731 24.9157L44.6556 28.4375L56.945 40.7225ZM53.8519 43.82L40.0881 30.0563L39.9394 29.9075L26.18 16.1438C24.6356 18.0688 23.45 20.2913 22.715 22.7063C21.2812 22.3771 19.8269 22.1447 18.3619 22.0107C19.9957 16.1041 23.8216 11.0436 29.059 7.86147C34.2964 4.67936 40.5506 3.61548 46.5456 4.8869C48.3015 5.26024 49.9756 5.81294 51.5681 6.54503C56.8245 8.95675 61.0408 13.1747 63.4506 18.4319C64.1798 20.0215 64.7325 21.6942 65.1087 23.45C65.4471 25.06 65.6177 26.7211 65.6206 28.4332C65.6224 33.6962 63.8985 38.8146 60.7132 43.0043C57.5279 47.1939 53.0568 50.2237 47.985 51.6294C47.8495 50.1643 47.6157 48.71 47.285 47.2763C49.672 46.5491 51.8991 45.3747 53.8475 43.8157M60.1037 21.8225C59.37 19.7671 58.2995 17.848 56.9362 16.1438L51.3275 21.7525C52.6551 22.5369 54.1664 22.9564 55.7084 22.9687C57.2503 22.981 58.7682 22.5856 60.1081 21.8225M48.2431 18.655L53.8475 13.055C52.1462 11.691 50.2301 10.6191 48.1775 9.88315C47.4469 11.1607 47.0312 12.6394 47.0312 14.2144C47.0312 15.8332 47.4688 17.3557 48.2431 18.655ZM43.7894 8.88128C41.2137 8.58289 38.6044 8.79853 36.1126 9.51573C33.6208 10.2329 31.2961 11.4374 29.2731 13.0594L41.5625 25.34L45.08 21.8225C43.5024 19.601 42.6553 16.9435 42.6562 14.2188C42.6562 12.3157 43.0631 10.5088 43.7938 8.8769M10.9375 30.625C10.3573 30.625 9.80094 30.8555 9.3907 31.2657C8.98047 31.676 8.75 32.2324 8.75 32.8125V37.1875C8.75 43.5693 11.2851 49.6897 15.7977 54.2023C20.3103 58.7149 26.4307 61.25 32.8125 61.25H37.1875C37.7677 61.25 38.3241 61.0196 38.7343 60.6093C39.1445 60.1991 39.375 59.6427 39.375 59.0625V54.6875C39.375 51.5276 38.7526 48.3986 37.5433 45.4792C36.3341 42.5598 34.5617 39.9072 32.3273 37.6728C30.0928 35.4384 27.4402 33.6659 24.5208 32.4567C21.6014 31.2474 18.4724 30.625 15.3125 30.625H10.9375ZM4.375 32.8125C4.375 31.072 5.0664 29.4028 6.29711 28.1721C7.52782 26.9414 9.19702 26.25 10.9375 26.25H15.3125C22.8546 26.25 30.0878 29.2461 35.4208 34.5792C40.7539 39.9122 43.75 47.1454 43.75 54.6875V59.0625C43.75 60.803 43.0586 62.4722 41.8279 63.7029C40.5972 64.9336 38.928 65.625 37.1875 65.625H32.8125C25.2704 65.625 18.0372 62.6289 12.7042 57.2959C7.37109 51.9628 4.375 44.7296 4.375 37.1875V32.8125ZM19.2325 41.1075C19.4357 40.9038 19.6771 40.7422 19.9429 40.6319C20.2086 40.5216 20.4935 40.4649 20.7812 40.4649C21.069 40.4649 21.3539 40.5216 21.6196 40.6319C21.8854 40.7422 22.1268 40.9038 22.33 41.1075L28.8925 47.67C29.0959 47.8734 29.2572 48.1149 29.3673 48.3806C29.4774 48.6463 29.534 48.9311 29.534 49.2188C29.534 49.5064 29.4774 49.7912 29.3673 50.057C29.2572 50.3227 29.0959 50.5641 28.8925 50.7675C28.6891 50.9709 28.4477 51.1322 28.1819 51.2423C27.9162 51.3524 27.6314 51.409 27.3438 51.409C27.0561 51.409 26.7713 51.3524 26.5056 51.2423C26.2398 51.1322 25.9984 50.9709 25.795 50.7675L19.2325 44.205C19.0288 44.0018 18.8672 43.7604 18.7569 43.4947C18.6466 43.2289 18.5898 42.944 18.5898 42.6563C18.5898 42.3685 18.6466 42.0836 18.7569 41.8179C18.8672 41.5521 19.0288 41.3107 19.2325 41.1075Z" fill="#0E1A2B"/>
</svg>
