<svg width="70" height="70" viewBox="0 0 70 70" fill="none" xmlns="http://www.w3.org/2000/svg">
<path d="M35 67.5004C52.5 67.5004 65 61.3004 65 47.5004C65 32.5004 57.5 24.9004 42.5 17.4004L48.99 7.26035C49.2447 6.77119 49.3708 6.22524 49.3563 5.67392C49.3418 5.12259 49.1872 4.58402 48.9072 4.10891C48.6271 3.6338 48.2307 3.23777 47.7554 2.95812C47.28 2.67846 46.7413 2.52437 46.19 2.51035H24.99C24.4019 2.49917 23.8218 2.64781 23.3115 2.94041C22.8013 3.233 22.38 3.6586 22.0926 4.17181C21.8052 4.68501 21.6625 5.2666 21.6796 5.85455C21.6968 6.4425 21.8732 7.01477 22.19 7.51035L27.5 17.4004C12.5 25.0004 5 32.6004 5 47.6004C5 61.3004 17.5 67.5004 35 67.5004Z" stroke="#006943" stroke-width="3" stroke-linecap="round" stroke-linejoin="round"/>
<path d="M27.5 17.5C28.3233 18.7345 29.4386 19.7466 30.7469 20.4467C32.0553 21.1467 33.5162 21.513 35 21.513C36.4838 21.513 37.9447 21.1467 39.2531 20.4467C40.5614 19.7466 41.6767 18.7345 42.5 17.5" stroke="#006943" stroke-width="3" stroke-linecap="round" stroke-linejoin="round"/>
</svg>
