<svg width="240" height="240" viewBox="0 0 240 240" fill="none" xmlns="http://www.w3.org/2000/svg">
<g clip-path="url(#clip0_2774_57)">
<path fill-rule="evenodd" clip-rule="evenodd" d="M8.59497 61.5C6.02138 62.7104 3.84541 64.6283 2.32127 67.0295C0.79714 69.4306 -0.012207 72.2159 -0.012207 75.06C-0.012207 77.904 0.79714 80.6893 2.32127 83.0905C3.84541 85.4917 6.02138 87.4095 8.59497 88.62L30.045 98.745V157.545C30.045 168.675 33.66 181.095 44.205 188.745C57.495 198.345 81.705 210.045 120.105 210.045C158.505 210.045 182.655 198.27 196.005 188.745C206.55 181.125 210.165 168.795 210.165 157.545V98.745L225.165 91.65V157.5C225.165 159.489 225.955 161.397 227.362 162.803C228.768 164.21 230.676 165 232.665 165C234.654 165 236.562 164.21 237.968 162.803C239.375 161.397 240.165 159.489 240.165 157.5V75C240.166 72.1593 239.36 69.3768 237.841 66.9762C236.322 64.5757 234.152 62.6558 231.585 61.44L145.785 20.94C137.766 17.1478 129.006 15.1809 120.135 15.1809C111.264 15.1809 102.504 17.1478 94.485 20.94L8.68497 61.44L8.59497 61.5ZM45.045 157.5V105.75L94.395 129.15C102.414 132.942 111.174 134.909 120.045 134.909C128.916 134.909 137.676 132.942 145.695 129.15L195.045 105.75V157.5C195.045 165.84 192.345 172.65 187.095 176.4C176.235 184.245 155.145 195 120.045 195C84.945 195 63.795 184.32 52.995 176.4C47.76 172.62 45.045 165.765 45.045 157.5ZM100.845 34.5C106.846 31.6571 113.404 30.1825 120.045 30.1825C126.686 30.1825 133.244 31.6571 139.245 34.5L225.045 75L139.245 115.5C133.244 118.343 126.686 119.818 120.045 119.818C113.404 119.818 106.846 118.343 100.845 115.5L15.045 75L100.845 34.5Z" fill="#A00000"/>
</g>
<defs>
<clipPath id="clip0_2774_57">
<rect width="240" height="240" fill="white"/>
</clipPath>
</defs>
</svg>
