<svg width="240" height="240" viewBox="0 0 240 240" fill="none" xmlns="http://www.w3.org/2000/svg">
<path d="M225 150L240 225H0L15 150H42.1875C38.2031 143.125 35.1953 135.898 33.1641 128.32C31.1328 120.742 30.0781 112.969 30 105C30 96.7188 31.0547 88.75 33.1641 81.0938C35.2734 73.4375 38.3203 66.2891 42.3047 59.6484C46.2891 53.0078 50.9766 46.9141 56.3672 41.3672C61.7578 35.8203 67.8125 31.1328 74.5312 27.3047C81.25 23.4766 88.4375 20.4687 96.0938 18.2812C103.75 16.0938 111.719 15 120 15C128.281 15 136.25 16.0547 143.906 18.1641C151.563 20.2734 158.711 23.3203 165.352 27.3047C171.992 31.2891 178.086 35.9766 183.633 41.3672C189.18 46.7578 193.867 52.8125 197.695 59.5312C201.523 66.25 204.531 73.4375 206.719 81.0938C208.906 88.75 210 96.7188 210 105C210 112.969 208.984 120.742 206.953 128.32C204.922 135.898 201.875 143.125 197.812 150H225ZM195 105C195 102.5 194.883 100 194.648 97.5C194.414 95 194.023 92.5 193.477 90H164.297C164.766 95.0781 165 100.078 165 105C165 110 164.766 115 164.297 120H193.477C193.945 117.5 194.297 115 194.531 112.5C194.766 110 194.922 107.5 195 105ZM90.7031 120H149.297C149.766 115 150 110 150 105C150 100.078 149.766 95.0781 149.297 90H90.7031C90.2344 95.0781 90 100.078 90 105C90 110 90.2344 115 90.7031 120ZM147.188 135H92.8125C93.125 136.797 93.6719 139.141 94.4531 142.031C95.2344 144.922 96.2109 148.086 97.3828 151.523C98.5547 154.961 99.9219 158.32 101.484 161.602C103.047 164.883 104.766 167.93 106.641 170.742C108.516 173.555 110.586 175.781 112.852 177.422C115.117 179.062 117.5 179.922 120 180C122.5 180 124.844 179.141 127.031 177.422C129.219 175.703 131.289 173.477 133.242 170.742C135.195 168.008 136.914 164.961 138.398 161.602C139.883 158.242 141.25 154.883 142.5 151.523C143.75 148.164 144.727 145.039 145.43 142.148C146.133 139.258 146.719 136.875 147.188 135ZM91.2891 174.258C87.6953 168.32 84.8047 161.992 82.6172 155.273C80.4297 148.555 78.75 141.797 77.5781 135H51.3281C53.2031 139.141 55.5469 143.164 58.3594 147.07C61.1719 150.977 64.2969 154.688 67.7344 158.203C71.1719 161.719 74.9219 164.805 78.9844 167.461C83.0469 170.117 87.1484 172.383 91.2891 174.258ZM162.422 135C161.172 141.719 159.492 148.438 157.383 155.156C155.273 161.875 152.422 168.242 148.828 174.258C153.047 172.383 157.109 170.078 161.016 167.344C164.922 164.609 168.633 161.562 172.148 158.203C175.664 154.844 178.828 151.172 181.641 147.188C184.453 143.203 186.797 139.141 188.672 135H162.422ZM188.672 75C184.688 66.1719 179.297 58.3594 172.5 51.5625C165.703 44.7656 157.773 39.4922 148.711 35.7422C152.305 41.6797 155.156 48.0078 157.266 54.7266C159.375 61.4453 161.094 68.2031 162.422 75H188.672ZM120 30C117.5 30 115.156 30.8594 112.969 32.5781C110.781 34.2969 108.711 36.5234 106.758 39.2578C104.805 41.9922 103.086 45.0391 101.602 48.3984C100.117 51.7578 98.75 55.1172 97.5 58.4766C96.25 61.8359 95.2344 64.9609 94.4531 67.8516C93.6719 70.7422 93.125 73.125 92.8125 75H147.188C146.797 73.2031 146.25 70.8594 145.547 67.9688C144.844 65.0781 143.867 61.9141 142.617 58.4766C141.367 55.0391 140 51.6797 138.516 48.3984C137.031 45.1172 135.312 42.0703 133.359 39.2578C131.406 36.4453 129.336 34.2188 127.148 32.5781C124.961 30.9375 122.578 30.0781 120 30ZM91.2891 35.7422C82.3047 39.4922 74.4141 44.7656 67.6172 51.5625C60.8203 58.3594 55.3906 66.1719 51.3281 75H77.5781C78.8281 68.2031 80.5078 61.4453 82.6172 54.7266C84.7266 48.0078 87.6172 41.6797 91.2891 35.7422ZM46.5234 90C46.0547 92.5 45.7031 95 45.4688 97.5C45.2344 100 45.0781 102.5 45 105C45 107.5 45.1172 110 45.3516 112.5C45.5859 115 45.9766 117.5 46.5234 120H75.7031C75.2344 115 75 110 75 105C75 100.078 75.2344 95.0781 75.7031 90H46.5234ZM18.2812 210H221.719L212.695 165H186.914C182.695 169.766 178.047 173.984 172.969 177.656C167.891 181.328 162.461 184.492 156.68 187.148C150.898 189.805 144.961 191.758 138.867 193.008C132.773 194.258 126.484 194.922 120 195C113.594 195 107.305 194.336 101.133 193.008C94.9609 191.68 89.0234 189.727 83.3203 187.148C77.6172 184.57 72.2266 181.445 67.1484 177.773C62.0703 174.102 57.3828 169.844 53.0859 165H27.3047L18.2812 210Z" fill="#A00000"/>
</svg>
