<svg width="240" height="240" viewBox="0 0 240 240" fill="none" xmlns="http://www.w3.org/2000/svg">
<path d="M150 225H127.5C123.522 225 119.706 223.42 116.893 220.607C114.08 217.794 112.5 213.978 112.5 210V172.5H127.5V210H150V172.5H165V142.5C165 140.511 164.21 138.603 162.803 137.197C161.397 135.79 159.489 135 157.5 135H92.1L77.1 90H30C28.0109 90 26.1032 90.7902 24.6967 92.1967C23.2902 93.6032 22.5 95.5109 22.5 97.5V142.5H37.5V210H67.5V157.5H82.5V210C82.5 213.978 80.9196 217.794 78.1066 220.607C75.2936 223.42 71.4782 225 67.5 225H37.5C33.5218 225 29.7064 223.42 26.8934 220.607C24.0804 217.794 22.5 213.978 22.5 210V157.5C18.5218 157.5 14.7064 155.92 11.8934 153.107C9.08035 150.294 7.5 146.478 7.5 142.5V97.5C7.50596 91.5345 9.8784 85.815 14.0967 81.5967C18.315 77.3784 24.0345 75.006 30 75H77.1C80.2473 75.0003 83.3147 75.9905 85.8681 77.8305C88.4215 79.6705 90.3314 82.267 91.3275 85.2525L102.9 120H157.5C163.466 120.006 169.185 122.378 173.403 126.597C177.622 130.815 179.994 136.534 180 142.5V172.5C180 176.478 178.42 180.294 175.607 183.107C172.794 185.92 168.978 187.5 165 187.5V210C165 213.978 163.42 217.794 160.607 220.607C157.794 223.42 153.978 225 150 225ZM210 225H195V142.5H217.5V97.5C217.5 95.5109 216.71 93.6032 215.303 92.1967C213.897 90.7902 211.989 90 210 90H180V75H210C215.966 75.006 221.685 77.3784 225.903 81.5967C230.122 85.815 232.494 91.5345 232.5 97.5V142.5C232.5 146.478 230.92 150.294 228.107 153.107C225.294 155.92 221.478 157.5 217.5 157.5H210V225ZM52.5 67.5C46.5666 67.5 40.7664 65.7405 35.8329 62.4441C30.8994 59.1477 27.0542 54.4623 24.7836 48.9805C22.513 43.4987 21.9189 37.4667 23.0764 31.6473C24.234 25.8279 27.0912 20.4824 31.2868 16.2868C35.4824 12.0912 40.8279 9.23401 46.6473 8.07646C52.4667 6.9189 58.4987 7.513 63.9805 9.78363C69.4623 12.0543 74.1476 15.8994 77.4441 20.8329C80.7405 25.7664 82.5 31.5666 82.5 37.5C82.4901 45.4535 79.3262 53.0783 73.7022 58.7023C68.0783 64.3262 60.4534 67.4901 52.5 67.5ZM52.5 22.5C49.5333 22.5 46.6332 23.3797 44.1664 25.028C41.6997 26.6762 39.7771 29.0189 38.6418 31.7598C37.5065 34.5007 37.2094 37.5167 37.7882 40.4264C38.367 43.3361 39.7956 46.0088 41.8934 48.1066C43.9912 50.2044 46.6639 51.633 49.5736 52.2118C52.4834 52.7906 55.4994 52.4935 58.2403 51.3582C60.9811 50.2229 63.3238 48.3003 64.972 45.8336C66.6203 43.3668 67.5 40.4667 67.5 37.5C67.5 33.5218 65.9196 29.7065 63.1066 26.8934C60.2936 24.0804 56.4782 22.5 52.5 22.5ZM187.5 67.5C181.567 67.5 175.766 65.7405 170.833 62.4441C165.899 59.1477 162.054 54.4623 159.784 48.9805C157.513 43.4987 156.919 37.4667 158.076 31.6473C159.234 25.8279 162.091 20.4824 166.287 16.2868C170.482 12.0912 175.828 9.23401 181.647 8.07646C187.467 6.9189 193.499 7.513 198.98 9.78363C204.462 12.0543 209.148 15.8994 212.444 20.8329C215.741 25.7664 217.5 31.5666 217.5 37.5C217.49 45.4535 214.326 53.0783 208.702 58.7023C203.078 64.3262 195.453 67.4901 187.5 67.5ZM187.5 22.5C184.533 22.5 181.633 23.3797 179.166 25.028C176.7 26.6762 174.777 29.0189 173.642 31.7598C172.506 34.5007 172.209 37.5167 172.788 40.4264C173.367 43.3361 174.796 46.0088 176.893 48.1066C178.991 50.2044 181.664 51.633 184.574 52.2118C187.483 52.7906 190.499 52.4935 193.24 51.3582C195.981 50.2229 198.324 48.3003 199.972 45.8336C201.62 43.3668 202.5 40.4667 202.5 37.5C202.5 33.5218 200.92 29.7065 198.107 26.8934C195.294 24.0804 191.478 22.5 187.5 22.5Z" fill="#A00000"/>
<path d="M138.75 112.5C133.558 112.5 128.483 110.96 124.166 108.076C119.85 105.192 116.485 101.092 114.498 96.2955C112.511 91.4989 111.992 86.2209 113.004 81.1289C114.017 76.0369 116.517 71.3596 120.188 67.6885C123.86 64.0173 128.537 61.5173 133.629 60.5044C138.721 59.4915 143.999 60.0114 148.795 61.9982C153.592 63.985 157.692 67.3495 160.576 71.6663C163.46 75.9831 165 81.0583 165 86.25C164.992 93.2095 162.224 99.8817 157.303 104.803C152.382 109.724 145.71 112.492 138.75 112.5ZM138.75 75C136.525 75 134.35 75.6598 132.5 76.896C130.65 78.1321 129.208 79.8892 128.356 81.9448C127.505 84.0005 127.282 86.2625 127.716 88.4448C128.15 90.6271 129.222 92.6316 130.795 94.205C132.368 95.7783 134.373 96.8498 136.555 97.2838C138.738 97.7179 141 97.4951 143.055 96.6437C145.111 95.7922 146.868 94.3502 148.104 92.5002C149.34 90.6501 150 88.4751 150 86.25C150 83.2663 148.815 80.4048 146.705 78.2951C144.595 76.1853 141.734 75 138.75 75Z" fill="#A00000"/>
</svg>
