<svg width="70" height="70" viewBox="0 0 70 70" fill="none" xmlns="http://www.w3.org/2000/svg">
<path d="M58.4237 60.6373C59.7654 61.979 61.8362 59.9081 60.4946 58.5956L49.5571 47.629C53.3947 43.3844 55.5156 37.8637 55.5071 32.1415C55.5071 19.3373 45.0946 8.9248 32.2904 8.9248C19.4862 8.9248 9.07373 19.3373 9.07373 32.1415C9.07373 44.9456 19.4862 55.3581 32.2904 55.3581C38.0654 55.3581 43.4029 53.229 47.4862 49.6998L58.4237 60.6373ZM11.9875 32.1415C11.9875 20.9415 21.1166 11.8415 32.2875 11.8415C43.4875 11.8415 52.5875 20.9415 52.5875 32.1415C52.5875 43.3415 43.4875 52.4415 32.2875 52.4415C21.1166 52.4415 11.9875 43.3415 11.9875 32.1415Z" fill="#006943"/>
</svg>
