<svg width="40" height="40" viewBox="0 0 40 40" fill="none" xmlns="http://www.w3.org/2000/svg">
<path d="M3.504 21V15.89H4.575L5.996 20.02C5.982 19.8707 5.96567 19.6957 5.947 19.495C5.933 19.2897 5.92133 19.082 5.912 18.872C5.90267 18.6573 5.898 18.4707 5.898 18.312V15.89H6.696V21H5.625L4.218 16.87C4.22733 17.0053 4.239 17.1687 4.253 17.36C4.267 17.5513 4.27867 17.7473 4.288 17.948C4.29733 18.1487 4.302 18.333 4.302 18.501V21H3.504ZM7.81327 21V15.89H10.8793V16.653H8.67427V17.983H10.6343V18.739H8.67427V20.237H10.8793V21H7.81327ZM13.0535 21V16.702H11.7165V15.89H15.2725V16.702H13.9355V21H13.0535ZM16.2078 21V15.89H19.2738V16.653H17.0688V17.983H19.0288V18.739H17.0688V20.237H19.2738V21H16.2078ZM20.5101 21V15.89H21.3851V20.188H23.5551V21H20.5101ZM24.7073 21V15.89H25.5823V20.188H27.7523V21H24.7073ZM28.7996 21V15.89H31.8656V16.653H29.6606V17.983H31.6206V18.739H29.6606V20.237H31.8656V21H28.7996ZM32.9129 21V15.89H34.5299C34.8705 15.89 35.1645 15.953 35.4119 16.079C35.6639 16.205 35.8599 16.3823 35.9999 16.611C36.1399 16.835 36.2099 17.101 36.2099 17.409C36.2099 17.745 36.1235 18.0413 35.9509 18.298C35.7829 18.5547 35.5542 18.7367 35.2649 18.844L36.2799 21H35.2999L34.4109 18.97H33.7879V21H32.9129ZM33.7879 18.2H34.5299C34.7772 18.2 34.9709 18.1323 35.1109 17.997C35.2509 17.8617 35.3209 17.675 35.3209 17.437C35.3209 17.1943 35.2509 17.0053 35.1109 16.87C34.9709 16.73 34.7772 16.66 34.5299 16.66H33.7879V18.2Z" fill="#FF8900"/>
</svg>
