<svg width="40" height="40" viewBox="0 0 40 40" fill="none" xmlns="http://www.w3.org/2000/svg">
<path d="M20.0017 11.09C21.3507 12.1496 22.4413 13.502 23.1908 15.045C23.9404 16.588 24.3294 18.2812 24.3283 19.9967C24.3287 21.7117 23.9392 23.4043 23.1894 24.9467C22.4395 26.4891 21.3489 27.8409 20 28.9C18.6511 27.8406 17.5607 26.4885 16.8112 24.9458C16.0616 23.4031 15.6725 21.7102 15.6733 19.995C15.6723 18.2796 16.0613 16.5863 16.8108 15.0433C17.5604 13.5003 18.6509 12.1479 20 11.0883M18.55 10.1183C17.1217 11.3379 15.9754 12.8532 15.1904 14.5594C14.4054 16.2655 14.0003 18.1219 14.0033 20C14.0011 21.8773 14.4064 23.7327 15.1914 25.4379C15.9764 27.1432 17.1224 28.6577 18.55 29.8767C16.8256 30.8447 14.878 31.3445 12.9006 31.3265C10.9232 31.3084 8.98492 30.7732 7.2785 29.7739C5.57208 28.7746 4.15691 27.3461 3.17367 25.6304C2.19043 23.9147 1.67336 21.9715 1.67386 19.9941C1.67436 18.0166 2.19241 16.0737 3.17652 14.3585C4.16063 12.6432 5.57652 11.2155 7.28345 10.2171C8.99038 9.21865 10.9289 8.68438 12.9063 8.66735C14.8837 8.65032 16.8311 9.15113 18.555 10.12M21.4583 29.8767C22.8857 28.6575 24.0313 27.1429 24.816 25.4377C25.6007 23.7324 26.0058 21.8771 26.0033 20C26.0057 18.1219 25.6 16.2657 24.8144 14.5598C24.0288 12.8539 22.882 11.3391 21.4533 10.12C23.1772 9.15113 25.1246 8.65032 27.102 8.66735C29.0794 8.68438 31.018 9.21865 32.7249 10.2171C34.4318 11.2155 35.8477 12.6432 36.8318 14.3585C37.8159 16.0737 38.334 18.0166 38.3345 19.9941C38.335 21.9715 37.8179 23.9147 36.8347 25.6304C35.8514 27.3461 34.4363 28.7746 32.7298 29.7739C31.0234 30.7732 29.0852 31.3084 27.1078 31.3265C25.1304 31.3445 23.1827 30.8447 21.4583 29.8767Z" fill="#FF8900"/>
</svg>
