<svg width="40" height="40" viewBox="0 0 40 40" fill="none" xmlns="http://www.w3.org/2000/svg">
<path d="M34.4817 14.7833L36.6667 25.215H34.1633C34.0633 24.7783 33.985 24.3216 33.885 23.885C33.785 23.4483 33.885 23.6666 33.6267 23.6666H30.5883C30.5556 23.661 30.5221 23.6622 30.4898 23.6703C30.4576 23.6783 30.4274 23.693 30.4012 23.7134C30.375 23.7338 30.3534 23.7595 30.3377 23.7887C30.3219 23.818 30.3125 23.8502 30.31 23.8833C30.17 24.2833 30.0317 24.68 29.8733 25.0566C29.7133 25.4333 29.7333 25.235 29.6733 25.235H26.9933V24.9966C28.3178 21.8578 29.6417 18.7128 30.965 15.5616C31.0431 15.3476 31.183 15.1616 31.3669 15.0271C31.5509 14.8927 31.7707 14.816 31.9983 14.8066C32.8717 14.7666 33.6667 14.7866 34.4817 14.7866M32.615 17.7083L31.2033 21.5033H33.4283L32.615 17.7083ZM10.1867 21.8766V21.6383C10.9817 19.4333 11.795 17.2283 12.57 15.0233C12.57 14.845 12.73 14.765 12.9283 14.765H15.57V15.0233L11.4583 24.9566C11.4388 25.039 11.3891 25.111 11.3191 25.1586C11.249 25.2061 11.1637 25.2256 11.08 25.2133H8.77666C8.57666 25.2133 8.49833 25.2133 8.43833 24.955C7.705 22.095 6.94833 19.235 6.21333 16.355C6.17752 16.2063 6.08475 16.0776 5.95499 15.9966C5.18847 15.5688 4.3761 15.2289 3.53333 14.9833C3.53333 14.9833 3.39333 14.8833 3.33333 14.845C3.41795 14.8224 3.50704 14.8224 3.59166 14.845H7.56499C7.73095 14.8197 7.90037 14.8298 8.06214 14.8746C8.22392 14.9194 8.37441 14.9979 8.50376 15.1049C8.6331 15.2119 8.73838 15.345 8.81269 15.4955C8.88701 15.646 8.92869 15.8106 8.93499 15.9783L10.0683 21.7966C10.0618 21.8431 10.0618 21.8902 10.0683 21.9366L10.1867 21.8766ZM19.4433 24.8166L19.8417 22.4916L20.12 22.6516C21.1345 23.1759 22.2979 23.337 23.4167 23.1083C23.6305 23.09 23.8334 23.0055 23.9971 22.8667C24.1608 22.7278 24.2771 22.5414 24.33 22.3333C24.3513 22.1257 24.3049 21.9168 24.1977 21.7377C24.0904 21.5587 23.9281 21.4191 23.735 21.34C23.3367 21.0816 22.9017 20.8833 22.5233 20.625C22.0333 20.352 21.5797 20.0182 21.1733 19.6316C20.7611 19.1385 20.5352 18.5161 20.5352 17.8733C20.5352 17.2305 20.7611 16.6082 21.1733 16.115C21.7716 15.4617 22.5537 15.0049 23.4167 14.805C24.7315 14.4756 26.1145 14.5446 27.39 15.0033H27.49L27.1117 17.1483C26.6103 16.9952 26.0991 16.876 25.5817 16.7916C25.0658 16.7515 24.5475 16.7515 24.0317 16.7916C23.8455 16.829 23.6738 16.9186 23.5367 17.05C23.4706 17.1063 23.4175 17.1763 23.3811 17.2552C23.3447 17.334 23.3258 17.4198 23.3258 17.5066C23.3258 17.5935 23.3447 17.6793 23.3811 17.7581C23.4175 17.837 23.4706 17.907 23.5367 17.9633C23.7744 18.1822 24.0322 18.3744 24.31 18.54C24.8267 18.8566 25.3633 19.115 25.86 19.4533C26.2708 19.7045 26.6116 20.0554 26.8506 20.4735C27.0896 20.8915 27.2191 21.3632 27.227 21.8447C27.235 22.3261 27.1212 22.8018 26.8962 23.2276C26.6712 23.6533 26.3423 24.0153 25.94 24.28C25.1481 24.8936 24.1963 25.2662 23.1983 25.3533C21.9215 25.4918 20.6303 25.3072 19.4433 24.8166ZM15.0333 25.2133L16.7417 14.785H19.4633L17.755 25.2133H15.0333Z" fill="#FF8900"/>
</svg>
