<svg width="40" height="40" viewBox="0 0 40 40" fill="none" xmlns="http://www.w3.org/2000/svg">
<path d="M7.416 22.08C7.016 22.08 6.66933 22.0133 6.376 21.88C6.08267 21.7467 5.856 21.5573 5.696 21.312C5.54133 21.0613 5.46133 20.768 5.456 20.432H6.456C6.456 20.672 6.54133 20.8613 6.712 21C6.888 21.1333 7.12533 21.2 7.424 21.2C7.712 21.2 7.936 21.1333 8.096 21C8.26133 20.8667 8.344 20.6827 8.344 20.448C8.344 20.2507 8.28533 20.08 8.168 19.936C8.056 19.7867 7.89333 19.6853 7.68 19.632L7.008 19.448C6.54933 19.3307 6.19467 19.12 5.944 18.816C5.69867 18.512 5.576 18.144 5.576 17.712C5.576 17.3813 5.65067 17.0933 5.8 16.848C5.94933 16.6027 6.16 16.4133 6.432 16.28C6.70933 16.1467 7.03467 16.08 7.408 16.08C7.97333 16.08 8.42133 16.2267 8.752 16.52C9.08267 16.808 9.25067 17.1973 9.256 17.688H8.256C8.256 17.4587 8.18133 17.28 8.032 17.152C7.88267 17.0187 7.672 16.952 7.4 16.952C7.13867 16.952 6.936 17.0133 6.792 17.136C6.648 17.2587 6.576 17.432 6.576 17.656C6.576 17.8587 6.62933 18.032 6.736 18.176C6.848 18.3147 7.008 18.4133 7.216 18.472L7.912 18.664C8.376 18.7813 8.73067 18.992 8.976 19.296C9.22133 19.5947 9.344 19.9653 9.344 20.408C9.344 20.7387 9.264 21.032 9.104 21.288C8.944 21.5387 8.72 21.7333 8.432 21.872C8.144 22.0107 7.80533 22.08 7.416 22.08ZM10.4049 22V16.16H11.4049V18.52H12.1009L13.1969 16.16H14.2849L12.9809 18.96L14.3489 22H13.2369L12.0849 19.432H11.4049V22H10.4049ZM15.2018 22V16.16H17.0498C17.4391 16.16 17.7751 16.232 18.0578 16.376C18.3458 16.52 18.5698 16.7227 18.7298 16.984C18.8898 17.24 18.9698 17.544 18.9698 17.896C18.9698 18.28 18.8711 18.6187 18.6738 18.912C18.4818 19.2053 18.2204 19.4133 17.8898 19.536L19.0498 22H17.9298L16.9138 19.68H16.2018V22H15.2018ZM16.2018 18.8H17.0498C17.3324 18.8 17.5538 18.7227 17.7138 18.568C17.8738 18.4133 17.9538 18.2 17.9538 17.928C17.9538 17.6507 17.8738 17.4347 17.7138 17.28C17.5538 17.12 17.3324 17.04 17.0498 17.04H16.2018V18.8ZM20.1106 22V21.12H21.2866V17.04H20.1106V16.16H23.4706V17.04H22.2946V21.12H23.4706V22H20.1106ZM25.0115 22V16.16H26.0115V21.072H28.4915V22H25.0115ZM29.8084 22V16.16H30.8084V21.072H33.2884V22H29.8084Z" fill="#FF8900"/>
</svg>
