<svg width="40" height="40" viewBox="0 0 40 40" fill="none" xmlns="http://www.w3.org/2000/svg">
<path d="M20 1.83252C9.96627 1.83252 1.83252 9.96627 1.83252 20C1.83252 30.0338 9.96627 38.1675 20 38.1675C30.0338 38.1675 38.1675 30.0338 38.1675 20C38.1675 9.96627 30.0338 1.83252 20 1.83252ZM21.5688 29.85V32.4088H19.1213V29.8788C15.105 29.3288 13.3463 26.0288 13.3463 26.0288L15.8463 23.9375C15.8463 23.9375 17.4425 26.7163 20.33 26.7163C21.925 26.7163 23.135 25.8625 23.135 24.4038C23.135 20.9938 13.9475 21.4075 13.9475 15.0813C13.9475 12.3313 16.1225 10.35 19.12 9.88127V7.32502H21.5675V9.88127C23.6575 10.1563 26.1325 11.2563 26.1325 13.6225V15.4375H22.8875V14.5575C22.8875 13.65 21.7313 13.045 20.4375 13.045C18.7875 13.045 17.5788 13.87 17.5788 15.025C17.5788 18.5175 26.7663 17.665 26.7663 24.2938C26.7663 27.0188 24.7313 29.3813 21.5688 29.85Z" fill="#FF8900"/>
</svg>
