<svg width="40" height="40" viewBox="0 0 40 40" fill="none" xmlns="http://www.w3.org/2000/svg">
<path d="M11.1325 6.25L10.8987 7.22625L6.28875 28.4763L5.9375 30H12.0312L11.2888 33.4763L10.9375 35H19.6487L19.8438 33.9838L21.1325 27.9688H24.4925C29.1937 27.9688 33.325 24.9125 34.375 20C34.9263 17.4175 34.3412 15.23 33.125 13.75C32.1375 12.55 30.8 11.825 29.4138 11.4838C29.145 10.2488 28.5787 9.19875 27.8125 8.39875C26.3913 6.91875 24.4188 6.25 22.5775 6.25H11.1325ZM13.1638 8.75H22.5775C23.8038 8.75 25.1563 9.22375 26.015 10.1175C26.875 11.0112 27.3775 12.285 26.915 14.4537C26.09 18.32 23.1687 20.4688 19.4925 20.4688H14.1L13.905 21.445L12.6175 27.5H9.0625L13.1638 8.75ZM16.3275 10.5862L16.0938 11.5625L14.805 17.3438L14.4537 18.8675H18.8663C21.0888 18.8675 23.0075 17.2512 23.5538 15.0787H23.5938C23.5988 15.0537 23.5887 15.025 23.5938 15C23.8675 13.9062 23.6912 12.7838 23.0862 11.9525C22.4662 11.1025 21.4213 10.5862 20.3125 10.5862H16.3275ZM18.32 13.0862H20.3125C20.7037 13.0862 20.9087 13.1987 21.055 13.3987C21.2012 13.5987 21.3038 13.9213 21.1713 14.4138V14.4525C20.9375 15.465 19.7412 16.3675 18.8675 16.3675H17.5787L18.32 13.0862ZM29.4925 14.18C30.1512 14.4487 30.7712 14.815 31.2112 15.3513C31.9387 16.235 32.3388 17.4563 31.9138 19.4525C31.0888 23.32 28.1687 25.4688 24.4925 25.4688H19.1L18.905 26.445L17.6175 32.5H14.0625L14.61 30H14.6475L14.8438 28.9838L16.1325 22.9688H19.4925C24.1937 22.9688 28.325 19.9125 29.375 15C29.4337 14.7163 29.4575 14.4525 29.4925 14.18Z" fill="#FF8900"/>
</svg>
