<svg width="40" height="40" viewBox="0 0 40 40" fill="none" xmlns="http://www.w3.org/2000/svg">
<path fill-rule="evenodd" clip-rule="evenodd" d="M7.5075 11.755L18.0575 6.69249C18.6639 6.40228 19.3277 6.25164 20 6.25164C20.6723 6.25164 21.3361 6.40228 21.9425 6.69249L32.4925 11.755C32.8687 11.9367 33.1862 12.2206 33.4086 12.5743C33.631 12.928 33.7493 13.3372 33.75 13.755V15C33.7498 18.5863 32.8473 22.115 31.1256 25.261C29.4038 28.407 26.9181 31.0692 23.8975 33.0025L21.4325 34.58C21.0052 34.8546 20.5079 35.0005 20 35.0005C19.4921 35.0005 18.9948 34.8546 18.5675 34.58L16.1025 33.005C13.0815 31.0715 10.5956 28.4089 8.87383 25.2624C7.15205 22.1159 6.24973 18.5868 6.25 15V13.755C6.25 12.9025 6.74 12.125 7.5075 11.755ZM16.4325 3.31249L5.885 8.37499C4.87172 8.86239 4.01653 9.62582 3.41774 10.5775C2.81894 11.5292 2.50084 12.6306 2.5 13.755V15C2.49979 19.2157 3.56035 23.3637 5.58401 27.0619C7.60767 30.7602 10.5294 33.8898 14.08 36.1625L16.545 37.7375C17.576 38.3987 18.7752 38.7502 20 38.7502C21.2248 38.7502 22.424 38.3987 23.455 37.7375L25.92 36.1625C29.4706 33.8898 32.3923 30.7602 34.416 27.0619C36.4396 23.3637 37.5002 19.2157 37.5 15V13.755C37.5 11.46 36.185 9.36749 34.115 8.37499L23.565 3.31249C22.4522 2.77927 21.234 2.50247 20 2.50247C18.766 2.50247 17.5453 2.77927 16.4325 3.31249ZM21.175 24.925C20.9908 25.0967 20.843 25.3037 20.7405 25.5336C20.6381 25.7636 20.583 26.0119 20.5785 26.2637C20.5741 26.5154 20.6204 26.7655 20.7147 26.999C20.809 27.2325 20.9494 27.4445 21.1274 27.6226C21.3055 27.8006 21.5175 27.941 21.751 28.0353C21.9845 28.1296 22.2345 28.1759 22.4863 28.1715C22.7381 28.167 22.9863 28.1119 23.2163 28.0094C23.4463 27.907 23.6533 27.7592 23.825 27.575C25.2625 26.14 26.62 24.08 27.615 22.0875C28.58 20.1575 29.375 17.955 29.375 16.25C29.375 15.7527 29.1775 15.2758 28.8258 14.9242C28.4742 14.5725 27.9973 14.375 27.5 14.375C27.0027 14.375 26.5258 14.5725 26.1742 14.9242C25.8225 15.2758 25.625 15.7527 25.625 16.25C25.625 17.045 25.17 18.5925 24.26 20.4125C23.38 22.17 22.2375 23.86 21.175 24.925Z" fill="white"/>
</svg>
