<svg width="40" height="40" viewBox="0 0 40 40" fill="none" xmlns="http://www.w3.org/2000/svg">
<path d="M4.44571 34.7657H35.5543C38.5136 34.7657 40 33.2936 40 30.3764V11.8714C40 8.95427 38.5136 7.48142 35.5543 7.48142H4.44571C1.50071 7.4807 0 8.93927 0 11.8714V30.3771C0 33.2943 1.50071 34.7657 4.44571 34.7657ZM4.48857 32.4871C3.07286 32.4871 2.28 31.7228 2.28 30.25V28.1971H6.25857C8.35357 28.1971 9.58571 26.965 9.58571 24.8693V17.3643C9.58571 15.2686 8.35357 14.0371 6.25857 14.0371H2.28V11.9836C2.28 10.525 3.07286 9.7607 4.48857 9.7607H18.8171V14.5321C15.66 15.0421 13.2814 17.775 13.2814 21.1164C13.2814 24.4578 15.66 27.1907 18.8171 27.715V32.4864L4.48857 32.4871ZM26.6336 21.1171C26.605 17.79 24.2693 15.0993 21.0979 14.5471V9.76142H35.5114C36.9129 9.76142 37.72 10.5257 37.72 11.9843V14.0371H33.7414C31.6457 14.0371 30.4143 15.2693 30.4143 17.365V24.8693C30.4143 26.965 31.6457 28.1964 33.7414 28.1964H37.72V30.25C37.72 31.7221 36.9129 32.4871 35.5114 32.4871H21.0971V27.7143C24.2829 27.1757 26.6757 24.4571 26.6336 21.1157M33.7836 25.9157C33.09 25.9157 32.6936 25.5193 32.6936 24.8257V17.4064C32.6936 16.7128 33.09 16.3164 33.7836 16.3164H37.72V25.9164L33.7836 25.9157ZM6.21643 16.3164C6.91071 16.3164 7.30714 16.7128 7.30714 17.4064V24.8264C7.30714 25.5193 6.91071 25.9164 6.21643 25.9164H2.28071V16.3164H6.21643ZM15.335 21.1021C15.3318 20.0759 15.6735 19.0783 16.3052 18.2695C16.9369 17.4607 17.8221 16.8876 18.8186 16.6421V25.5907C16.8364 25.0807 15.335 23.255 15.335 21.1021ZM24.5814 21.1021C24.5529 23.2543 23.08 25.0807 21.0979 25.5907V16.6564C23.0943 17.1657 24.595 18.9636 24.5814 21.1021Z" fill="white"/>
</svg>
