<svg width="24" height="24" viewBox="0 0 24 24" fill="none" xmlns="http://www.w3.org/2000/svg">
<path d="M22 1.5H2C1.60218 1.5 1.22064 1.65804 0.93934 1.93934C0.658035 2.22064 0.5 2.60218 0.5 3V16.55C0.501258 16.7443 0.541287 16.9364 0.61774 17.115C0.694194 17.2937 0.805535 17.4552 0.945237 17.5903C1.08494 17.7253 1.25019 17.8311 1.43131 17.9015C1.61243 17.9718 1.80577 18.0053 2 18H5V22C4.99841 22.0914 5.02298 22.1814 5.07081 22.2594C5.11865 22.3373 5.18775 22.4 5.27 22.44C5.34599 22.4891 5.43454 22.5152 5.525 22.5152C5.61546 22.5152 5.70401 22.4891 5.78 22.44L12.16 18H22C22.3978 18 22.7794 17.842 23.0607 17.5607C23.342 17.2794 23.5 16.8978 23.5 16.5V3C23.5 2.60218 23.342 2.22064 23.0607 1.93934C22.7794 1.65804 22.3978 1.5 22 1.5ZM13.25 10.56V11C13.25 11.1989 13.171 11.3897 13.0303 11.5303C12.8897 11.671 12.6989 11.75 12.5 11.75C12.3011 11.75 12.1103 11.671 11.9697 11.5303C11.829 11.3897 11.75 11.1989 11.75 11V10.56C11.7495 10.1544 11.8675 9.75756 12.0896 9.41821C12.3117 9.07886 12.6281 8.81184 13 8.65C13.2064 8.55993 13.3846 8.41578 13.5158 8.23279C13.647 8.0498 13.7264 7.83476 13.7455 7.61039C13.7646 7.38603 13.7227 7.16067 13.6243 6.95813C13.5259 6.75559 13.3746 6.58339 13.1865 6.45973C12.9983 6.33607 12.7802 6.26553 12.5552 6.25558C12.3303 6.24563 12.1068 6.29663 11.9084 6.40319C11.7101 6.50975 11.5442 6.66792 11.4283 6.86098C11.3124 7.05404 11.2508 7.27482 11.25 7.5C11.25 7.69891 11.171 7.88968 11.0303 8.03033C10.8897 8.17098 10.6989 8.25 10.5 8.25C10.3011 8.25 10.1103 8.17098 9.96967 8.03033C9.82902 7.88968 9.75 7.69891 9.75 7.5C9.74632 7.00336 9.87721 6.51498 10.1288 6.08674C10.3803 5.65851 10.7432 5.30639 11.1787 5.06778C11.6143 4.82917 12.1064 4.71297 12.6027 4.73154C13.099 4.7501 13.581 4.90273 13.9976 5.17321C14.4141 5.4437 14.7497 5.82194 14.9685 6.26777C15.1874 6.71361 15.2814 7.21039 15.2406 7.70537C15.1999 8.20036 15.0258 8.67506 14.7369 9.07907C14.4481 9.48308 14.0552 9.80132 13.6 10C13.4916 10.0467 13.4001 10.1253 13.3375 10.2253C13.275 10.3254 13.2445 10.4421 13.25 10.56ZM13.5 13.5C13.5 13.6978 13.4414 13.8911 13.3315 14.0556C13.2216 14.22 13.0654 14.3482 12.8827 14.4239C12.7 14.4996 12.4989 14.5194 12.3049 14.4808C12.1109 14.4422 11.9327 14.347 11.7929 14.2071C11.653 14.0673 11.5578 13.8891 11.5192 13.6951C11.4806 13.5011 11.5004 13.3 11.5761 13.1173C11.6518 12.9346 11.78 12.7784 11.9444 12.6685C12.1089 12.5586 12.3022 12.5 12.5 12.5C12.7652 12.5 13.0196 12.6054 13.2071 12.7929C13.3946 12.9804 13.5 13.2348 13.5 13.5Z" fill="white"/>
</svg>
