<svg id="playsponsible_Logo_Color" class="h-10 opacity-90" data-name="playsponsible Logo Color" xmlns="http://www.w3.org/2000/svg" viewBox="0 0 290 145.287">
  <path id="Pfad_1847" data-name="Pfad 1847" d="M0,218.505H3.863v3.516H3.99a7.269,7.269,0,0,1,6.749-3.987c4.71,0,8.351,4.083,8.351,9.169s-3.643,9.169-8.351,9.169a7.255,7.255,0,0,1-6.656-3.831H3.958v8.29H0Zm15.041,8.7A5.23,5.23,0,0,0,9.7,221.738a5.467,5.467,0,0,0,0,10.927A5.229,5.229,0,0,0,15.041,227.2Zm8.229-13.6h3.895v22.262H23.27Zm8.1,13.564c0-5.086,3.643-9.169,8.573-9.169a7.108,7.108,0,0,1,6.563,3.956h.125v-3.453h3.831v17.364H46.626v-3.392H46.5a6.986,6.986,0,0,1-6.563,3.863c-4.93,0-8.573-4.08-8.573-9.169Zm14.695,0a5.278,5.278,0,1,0-5.306,5.462,5.186,5.186,0,0,0,5.306-5.462Zm14.867,6.092-6.876-14.758h4.271l4.8,10.236L67.4,218.505h4.271l-10.08,22.325h-4.3l3.643-7.567Zm12.708-2.481h3.924c.032,1.131,1.162,1.948,2.608,1.948,1.538,0,2.513-.754,2.513-1.885,0-1.443-1.538-1.758-3.108-2.166-3.265-.816-5.589-2.166-5.589-5.338,0-2.984,2.7-5.306,6.249-5.306,3.423,0,6.249,2.354,6.249,5.433l-3.924-.032c0-1.162-1.1-1.822-2.325-1.822-1.255,0-2.325.628-2.325,1.695,0,1.287,1.507,1.6,3.077,2.01,2.325.6,5.526,1.382,5.526,5.462,0,3.077-2.889,5.558-6.4,5.558C76.4,236.34,73.635,233.827,73.635,230.783ZM91,218.505h3.863v3.516h.127a7.269,7.269,0,0,1,6.749-3.987c4.71,0,8.351,4.083,8.351,9.169s-3.643,9.169-8.351,9.169a7.255,7.255,0,0,1-6.656-3.831h-.125v8.29H91Zm15.041,8.7a5.309,5.309,0,1,0-5.338,5.462A5.23,5.23,0,0,0,106.037,227.2Zm7.193,0a9.233,9.233,0,1,1,9.232,9.137A9.147,9.147,0,0,1,113.231,227.2Zm14.57,0a5.307,5.307,0,1,0-5.338,5.431A5.239,5.239,0,0,0,127.8,227.2Zm7.331-8.729H138.9v3.045h.156A5.636,5.636,0,0,1,144.394,218c4.3,0,6.28,2.984,6.28,6.876v10.99h-3.831v-9.985c0-2.386-1.131-4.271-3.643-4.271-2.762,0-4.176,2.229-4.176,4.617v9.64H135.13v-17.4Zm19.6,12.309h3.924c.032,1.131,1.162,1.948,2.608,1.948,1.538,0,2.513-.754,2.513-1.885,0-1.443-1.538-1.758-3.108-2.166-3.265-.816-5.589-2.166-5.589-5.338,0-2.984,2.7-5.306,6.249-5.306,3.423,0,6.249,2.354,6.249,5.433l-3.924-.032c0-1.162-1.1-1.822-2.325-1.822-1.255,0-2.325.628-2.325,1.695,0,1.287,1.507,1.6,3.077,2.01,2.325.6,5.526,1.382,5.526,5.462,0,3.077-2.889,5.558-6.4,5.558-3.7,0-6.468-2.513-6.468-5.558Zm17.457-17.191a2.279,2.279,0,0,1,2.293-2.261,2.252,2.252,0,0,1,2.261,2.261,2.277,2.277,0,0,1-2.261,2.293A2.3,2.3,0,0,1,172.188,213.591Zm.315,4.914h3.958v17.332H172.5Zm13.818,13.972h-.156v3.392h-3.831V213.607h3.958v8.351h.125A7.247,7.247,0,0,1,193.073,218c4.71,0,8.351,4.08,8.351,9.169s-3.643,9.169-8.351,9.169a7.289,7.289,0,0,1-6.749-3.863Zm10.959-5.306a5.263,5.263,0,1,0-10.519,0,5.263,5.263,0,1,0,10.519,0Zm8.482-13.564h3.895v22.262h-3.895Zm22.051,17.04a4.959,4.959,0,0,1-4.2,2.021,5.307,5.307,0,0,1-5.308-4.176h14.57a6.939,6.939,0,0,0,.127-1.255,9.457,9.457,0,0,0-18.9-.127,9.5,9.5,0,0,0,18.2,3.539h-4.484Zm-4.325-8.938a4.956,4.956,0,0,1,5.15,3.8H218.371C218.654,223.311,220.725,221.709,223.489,221.709Z" transform="translate(0 -163.451)"></path>
  <path id="Pfad_1848" data-name="Pfad 1848" d="M769.815,0l-20.97,36.322H724.63L745.6,0Zm80.64,36.322L829.485,0H805.27L784.315,36.322H808.53l8.852-15.345,8.858,15.345-38.687,67.042-8.865-15.356H754.473l33.071,57.279L850.457,36.32Z" transform="translate(-560.457)" fill="#cd0d2d"></path>
</svg>