<svg width="24" height="24" viewBox="0 0 24 24" fill="none" xmlns="http://www.w3.org/2000/svg">
<g clip-path="url(#clip0_2652_4)">
<path d="M9.75 17.9998C9.75 19.0588 9.9495 20.0698 10.3125 20.9998H3.24622e-07C-0.000549335 18.7887 0.696937 16.6338 1.99303 14.8424C3.28913 13.051 5.11767 11.7145 7.218 11.0233C6.2136 10.3671 5.42901 9.42477 4.96556 8.3181C4.50211 7.21144 4.38108 5.99125 4.6181 4.81511C4.85512 3.63896 5.43931 2.56089 6.29523 1.72011C7.15114 0.879338 8.23946 0.314474 9.41964 0.0984699C10.5998 -0.117534 11.8177 0.0252434 12.9159 0.508364C14.0141 0.991484 14.9423 1.79276 15.5805 2.80871C16.2187 3.82465 16.5377 5.00861 16.4963 6.20768C16.4548 7.40676 16.0549 8.56587 15.348 9.53532C14.9235 10.1158 14.325 10.5208 13.7265 10.9258C13.5195 11.0628 13.3165 11.2038 13.1175 11.3488C12.0735 12.1153 11.2247 13.1168 10.6397 14.2723C10.0546 15.4277 9.74986 16.7047 9.75 17.9998Z" fill="white"/>
<path fill-rule="evenodd" clip-rule="evenodd" d="M24 18C24 19.5913 23.3679 21.1174 22.2426 22.2426C21.1174 23.3679 19.5913 24 18 24C16.4087 24 14.8826 23.3679 13.7574 22.2426C12.6321 21.1174 12 19.5913 12 18C12 16.4087 12.6321 14.8826 13.7574 13.7574C14.8826 12.6321 16.4087 12 18 12C19.5913 12 21.1174 12.6321 22.2426 13.7574C23.3679 14.8826 24 16.4087 24 18ZM16.875 15V16.875H15V19.125H16.875V21H19.125V19.125H21V16.875H19.125V15H16.875Z" fill="white"/>
</g>
<defs>
<clipPath id="clip0_2652_4">
<rect width="24" height="24" fill="white"/>
</clipPath>
</defs>
</svg>
